<svg xmlns="http://www.w3.org/2000/svg" width="1550" height="673.9" viewBox="0 0 1550 673.9"><style type="text/css">.st0{fill:#DEDEDE;}</style><path class="st0" d="M52.1 266.9h18.7v10.1h-47.7v-32.9h9.3v22.8h10.4v-21.2h9.3v21.2zM46.3 216.5v1.5c0 2.9.9 5.1 2.7 6.8 1.8 1.6 4.4 2.5 7.8 2.5h14v9.7h-33.4v-9.5h3c-2.3-2-3.4-4.8-3.5-8.3 0-1.3 0-2.2.1-2.6l9.3-.1zM71.6 201.7c0 3.5-1 6.2-3 8.3-1.9 2.1-4.6 3.2-7.8 3.2-3.3 0-5.9-1.3-7.7-3.8-1.9-2.5-2.8-5.7-2.7-9.4 0-2.2.3-4.4.9-6.7h-.5c-1.6 0-2.9.5-3.9 1.5s-1.5 2.4-1.5 4.1c0 3.1 1.3 5.5 3.8 7.1l-5.8 6.1c-4.5-3.7-6.7-8.3-6.7-13.9 0-4.1 1.2-7.6 3.6-10.4 2.4-2.8 5.6-4.2 9.8-4.2h20.7v9.5h-2.2c2 2.3 3 5.1 3 8.6zm-11.7 1.8c.9 0 1.6-.4 2.2-1.2.5-.8.8-1.8.8-3 0-2.2-.6-4.2-1.9-6h-3.4c-.9 4-.9 6.9.2 8.7.5 1 1.2 1.5 2.1 1.5zM54.1 164.9h16.7v9.7h-33.4v-9.5h2.4c-2.1-2.1-3.1-4.8-3.1-7.9 0-4.1 1.3-7.4 3.9-9.9 2.6-2.4 6.2-3.7 10.8-3.7h19.4v9.7h-18.6c-2 0-3.6.5-4.8 1.4s-1.8 2.3-1.8 4.1c0 4 2.9 6.1 8.5 6.1zM70.8 125.2v9.7h-47.7v-9.7h24.9l-10.6-9.2v-12.2l13.8 12.3 19.6-12.8v11.8l-12.7 8 2.5 2.2h10.2v-.1zM54.1 66.6c4.9 0 9.1 1.7 12.4 5 3.3 3.3 5 7.5 5 12.6s-1.7 9.3-5 12.6c-3.3 3.4-7.5 5-12.4 5s-9.1-1.7-12.5-5c-3.3-3.5-5-7.7-5-12.6 0-5 1.7-9.1 5-12.5 3.3-3.4 7.6-5.1 12.5-5.1zm6.1 12c-1.6-1.5-3.6-2.2-6.1-2.2-2.5 0-4.5.7-6.1 2.2-1.6 1.5-2.4 3.3-2.4 5.6s.8 4.1 2.4 5.6c1.6 1.5 3.6 2.2 6.1 2.2s4.5-.7 6.1-2.2 2.4-3.3 2.4-5.6-.8-4.1-2.4-5.6zM70.8 17.9v22.5h-47.7v-21.4c0-5 1.2-9 3.5-12s5.5-4.4 9.5-4.4 7.3 1.6 9.8 4.8c2.9-4 6.5-6 10.8-6s7.7 1.5 10.3 4.5c2.5 3.1 3.8 7.1 3.8 12zm-38.4 3.1v9.3h9.6v-9.7c0-5.3-1.6-7.9-4.8-7.9-1.7 0-3 .6-3.7 1.9-.7 1.3-1.1 3.4-1.1 6.4zm18.3 9.3h10.7v-10.2c0-2.9-.5-5.1-1.3-6.5s-2.2-2.1-4.2-2.1c-3.5 0-5.2 2.8-5.2 8.3v10.5zM174.8 477v31.9h-47.7v-10.1h38.4v-21.9h9.3v.1zM166.6 455.3c0-3.4-1.3-6.1-3.8-8.2l5.9-6.4c4.5 3.6 6.8 8.3 6.8 14.3 0 5-1.6 9.2-4.8 12.6-3.2 3.3-7.3 4.9-12.4 4.9s-9.3-1.5-12.7-4.6c-3.4-3.1-5.1-7.1-5.1-12s1.7-8.8 5.1-11.7c3.4-2.8 7.4-4.2 12-4.2l2.9.1v22.7c1.8-.3 3.2-1.1 4.3-2.4 1.2-1.3 1.8-3 1.8-5.1zm-15.9-3.2c-.9 1-1.4 2.4-1.4 4s.4 3 1.3 4.1c.9 1.1 2 1.8 3.4 2.1v-12c-1.3.2-2.4.7-3.3 1.8zM174.9 421.1c0 7.8-4 11.7-11.9 11.7h-12.6v4.3h-9v-4.3h-9.3v-9.7h9.3v-7.3h9v7.3h11.4c1.6 0 2.6-.3 3.2-1 .6-.7.9-1.8.9-3.4v-2.9h8.8c.1 2.3.2 4 .2 5.3zM131.9 408.7c-1.6 0-2.9-.5-4-1.6s-1.6-2.4-1.6-4 .5-2.9 1.6-4 2.4-1.7 4-1.7 2.9.6 4 1.7 1.6 2.5 1.6 4-.5 2.8-1.6 3.9-2.4 1.7-4 1.7zm42.9-10.4v9.7h-33.4v-9.7h33.4zM150.1 389.5h-8.7v-26.9h7.8l16.8 14.7v-15.5h8.7v28.1h-7.7l-16.9-14.5v14.1zM131.9 354.3c-1.6 0-2.9-.5-4-1.6s-1.6-2.4-1.6-4 .5-2.9 1.6-4 2.4-1.7 4-1.7 2.9.6 4 1.7 1.6 2.5 1.6 4-.5 2.8-1.6 3.9-2.4 1.7-4 1.7zm42.9-10.4v9.7h-33.4v-9.7h33.4zM175.5 325.2c0 3.5-1 6.2-3 8.3-1.9 2.1-4.6 3.2-7.8 3.2-3.3 0-5.9-1.3-7.7-3.8-1.9-2.5-2.8-5.7-2.7-9.4 0-2.2.3-4.4.9-6.7h-.5c-1.6 0-2.9.5-3.9 1.5s-1.5 2.4-1.5 4.1c0 3.1 1.3 5.5 3.8 7.1l-5.8 6.1c-4.5-3.7-6.7-8.3-6.7-13.9 0-4.2 1.2-7.6 3.6-10.4 2.4-2.8 5.6-4.2 9.8-4.2h20.8v9.5h-2.2c1.9 2.3 2.9 5.1 2.9 8.6zm-11.6 1.8c.9 0 1.6-.4 2.2-1.2s.8-1.8.8-3c0-2.2-.6-4.2-1.9-6h-3.4c-.9 4-.9 6.9.2 8.7.5 1 1.2 1.5 2.1 1.5zM174.8 256.7v22.5h-47.7v-21.3c0-5 1.2-9 3.5-12s5.5-4.4 9.5-4.4 7.3 1.6 9.8 4.8c2.9-4 6.5-6 10.8-6s7.7 1.5 10.3 4.5c2.5 3.1 3.8 7 3.8 11.9zm-38.4 3.2v9.3h9.6v-9.7c0-5.3-1.6-7.9-4.8-7.9-1.7 0-3 .6-3.7 1.9s-1.1 3.4-1.1 6.4zm18.3 9.2h10.7v-10.2c0-2.9-.5-5.1-1.3-6.5s-2.2-2.1-4.2-2.1c-3.5 0-5.2 2.8-5.2 8.3v10.5zM175.5 223.1c0 3.5-1 6.2-3 8.3-1.9 2.1-4.6 3.2-7.8 3.2-3.3 0-5.9-1.3-7.7-3.8-1.9-2.5-2.8-5.7-2.7-9.4 0-2.2.3-4.4.9-6.7h-.5c-1.6 0-2.9.5-3.9 1.5s-1.5 2.4-1.5 4.1c0 3.1 1.3 5.5 3.8 7.1l-5.8 6.1c-4.5-3.7-6.7-8.3-6.7-13.9 0-4.1 1.2-7.6 3.6-10.4 2.4-2.8 5.6-4.2 9.8-4.2h20.8v9.5h-2.2c1.9 2.3 2.9 5.1 2.9 8.6zm-11.6 1.8c.9 0 1.6-.4 2.2-1.2.5-.8.8-1.8.8-3 0-2.2-.6-4.2-1.9-6h-3.4c-.9 4-.9 6.9.2 8.7.5 1 1.2 1.5 2.1 1.5zM174.9 184.1c0 7.8-4 11.7-11.9 11.7h-12.6v4.3h-9v-4.3h-9.3v-9.7h9.3v-7.3h9v7.3h11.4c1.6 0 2.6-.3 3.2-1 .6-.7.9-1.8.9-3.4v-2.9h8.8c.1 2.3.2 4 .2 5.3zM174.9 158.3c0 7.8-4 11.7-11.9 11.7h-12.6v4.3h-9v-4.3h-9.3v-9.7h9.3v-7.3h9v7.3h11.4c1.6 0 2.6-.3 3.2-1 .6-.7.9-1.8.9-3.4v-2.9h8.8c.1 2.4.2 4.1.2 5.3zM175.5 136c0 3.5-1 6.2-3 8.3s-4.6 3.2-7.8 3.2c-3.3 0-5.9-1.3-7.7-3.8-1.9-2.5-2.8-5.7-2.7-9.4 0-2.2.3-4.4.9-6.7h-.5c-1.6 0-2.9.5-3.9 1.5s-1.5 2.4-1.5 4.1c0 3.1 1.3 5.5 3.8 7.1l-5.8 6.1c-4.5-3.7-6.7-8.3-6.7-13.9 0-4.1 1.2-7.6 3.6-10.4 2.4-2.8 5.6-4.2 9.8-4.2h20.8v9.5h-2.2c1.9 2.3 2.9 5.2 2.9 8.6zm-11.6 1.8c.9 0 1.6-.4 2.2-1.2.5-.8.8-1.8.8-3 0-2.2-.6-4.2-1.9-6h-3.4c-.9 4-.9 6.9.2 8.7.5 1 1.2 1.5 2.1 1.5zM172.3 87.1h-.9c1.7 1.9 2.5 4.6 2.5 8.1 0 4.8-1.5 8.7-4.5 11.8s-7.1 4.6-12.2 4.6-9.2-1.6-12.2-4.8c-3-3.2-4.5-7-4.5-11.6 0-3.2 1.1-5.9 3.2-8.3h-2.4v-9.4h29.9c5.2 0 9.3 1.6 12.6 4.8 3.2 3.2 4.8 7.6 4.9 13.1 0 6.5-2.2 11.6-6.7 15.2l-6.4-6.7c2.8-1.9 4.2-4.7 4.2-8.4 0-2.5-.7-4.6-2-6.1-1.5-1.5-3.3-2.3-5.5-2.3zm-15-.2c-2.3 0-4.2.7-5.7 2.2-1.5 1.4-2.3 3.2-2.3 5.2 0 2.1.8 3.8 2.3 5.2 1.5 1.4 3.4 2.1 5.7 2.1s4.2-.7 5.7-2.1c1.5-1.4 2.3-3.2 2.3-5.2 0-2.1-.8-3.8-2.3-5.2-1.5-1.5-3.4-2.2-5.7-2.2zM174.8 58.3v9.7h-47.7v-9.7h47.7zM131.9 49.2c-1.6 0-2.9-.5-4-1.6s-1.6-2.4-1.6-4 .5-2.9 1.6-4 2.4-1.7 4-1.7 2.9.6 4 1.7 1.6 2.5 1.6 4-.5 2.8-1.6 3.9-2.4 1.7-4 1.7zm42.9-10.4v9.7h-33.4v-9.7h33.4zM175.5 20.1c0 3.5-1 6.2-3 8.3s-4.6 3.2-7.8 3.2c-3.3 0-5.9-1.3-7.7-3.8-1.9-2.5-2.8-5.7-2.7-9.4 0-2.2.3-4.4.9-6.7h-.5c-1.6 0-2.9.5-3.9 1.5s-1.5 2.4-1.5 4.1c0 3.1 1.3 5.5 3.8 7.1l-5.8 6.1c-4.5-3.7-6.7-8.3-6.7-13.9 0-4.1 1.2-7.6 3.6-10.4 2.4-2.8 5.6-4.2 9.8-4.2h20.8v9.5h-2.2c1.9 2.3 2.9 5.1 2.9 8.6zm-11.6 1.8c.9 0 1.6-.4 2.2-1.2.5-.8.8-1.8.8-3 0-2.2-.6-4.2-1.9-6h-3.4c-.9 4-.9 6.9.2 8.7.5 1 1.2 1.5 2.1 1.5zM231 445.8l34.6-11.4-34.6-11.1v-10.4l47.7 16.3v11.1l-47.7 15.7v-10.2zM279.5 401.6c0 3.5-1 6.2-3 8.3-1.9 2.1-4.6 3.2-7.8 3.2-3.3 0-5.9-1.3-7.7-3.8-1.9-2.5-2.8-5.7-2.7-9.4 0-2.2.3-4.4.9-6.7h-.5c-1.6 0-2.9.5-3.9 1.5s-1.5 2.4-1.5 4.1c0 3.1 1.3 5.5 3.8 7.1l-5.8 6.1c-4.5-3.7-6.7-8.3-6.7-13.9 0-4.1 1.2-7.6 3.6-10.4 2.4-2.8 5.6-4.2 9.8-4.2h20.8v9.5h-2.2c1.9 2.4 2.9 5.2 2.9 8.6zm-11.6 1.9c.9 0 1.6-.4 2.2-1.2.5-.8.8-1.8.8-3 0-2.2-.6-4.2-1.9-6h-3.4c-.9 4-.9 6.9.2 8.7.4 1 1.2 1.5 2.1 1.5zM278.7 364.8v9.7h-47.7v-9.7h47.7zM270.5 340.7c0-3.4-1.3-6.1-3.8-8.2l5.9-6.4c4.5 3.6 6.8 8.4 6.8 14.3 0 5-1.6 9.2-4.8 12.6-3.2 3.3-7.3 5-12.4 5-5.1 0-9.3-1.5-12.7-4.6s-5.1-7.1-5.1-12 1.7-8.8 5.1-11.7c3.4-2.8 7.4-4.2 12-4.2l2.9.1v22.6c1.8-.3 3.2-1.1 4.3-2.4 1.3-1.4 1.8-3.1 1.8-5.1zm-15.9-3.3c-.9 1-1.4 2.4-1.4 4s.4 3 1.3 4.1c.9 1.1 2 1.8 3.4 2.1v-12c-1.2.2-2.3.8-3.3 1.8zM254.2 298.3v1.5c0 2.9.9 5.1 2.7 6.8 1.8 1.7 4.4 2.5 7.8 2.5h14v9.7h-33.4v-9.5h3c-2.3-2-3.4-4.8-3.5-8.3 0-1.3 0-2.2.1-2.6h9.3v-.1zM235.9 292.8c-1.6 0-2.9-.5-4-1.6s-1.6-2.4-1.6-4 .5-2.9 1.6-4 2.4-1.7 4-1.7 2.9.6 4 1.7 1.6 2.5 1.6 4-.5 2.8-1.6 3.9-2.4 1.7-4 1.7zm42.8-10.4v9.7h-33.4v-9.7h33.4zM262 239.9c4.9 0 9.1 1.7 12.4 5 3.3 3.3 5 7.5 5 12.6s-1.7 9.3-5 12.6c-3.3 3.4-7.5 5-12.4 5s-9.1-1.7-12.5-5c-3.3-3.5-5-7.7-5-12.6 0-4.9 1.7-9.1 5-12.5s7.6-5.1 12.5-5.1zm6.1 12.1c-1.6-1.5-3.6-2.2-6.1-2.2s-4.5.7-6.1 2.2c-1.6 1.5-2.4 3.3-2.4 5.6s.8 4.1 2.4 5.6 3.6 2.2 6.1 2.2 4.5-.7 6.1-2.2 2.4-3.3 2.4-5.6-.8-4.2-2.4-5.6zM278.7 191.2v22.5h-47.7v-21.3c0-5 1.2-9 3.5-12s5.5-4.4 9.5-4.4 7.3 1.6 9.8 4.8c2.9-4 6.5-6 10.8-6 4.3 0 7.7 1.5 10.3 4.5 2.5 3.1 3.8 7 3.8 11.9zm-38.4 3.1v9.3h9.6v-9.7c0-5.3-1.6-7.9-4.8-7.9-1.7 0-3 .6-3.7 1.9s-1.1 3.5-1.1 6.4zm18.4 9.3h10.7v-10.2c0-2.9-.5-5.1-1.3-6.5-.8-1.4-2.2-2.1-4.2-2.1-3.5 0-5.2 2.8-5.2 8.3v10.5zM270.5 151.7c0-3.4-1.3-6.1-3.8-8.2l5.9-6.4c4.5 3.6 6.8 8.4 6.8 14.3 0 5-1.6 9.2-4.8 12.6-3.2 3.3-7.3 5-12.4 5-5.1 0-9.3-1.5-12.7-4.6s-5.1-7.1-5.1-12 1.7-8.8 5.1-11.7c3.4-2.8 7.4-4.2 12-4.2l2.9.1v22.6c1.8-.3 3.2-1.1 4.3-2.4 1.3-1.3 1.8-3 1.8-5.1zm-15.9-3.2c-.9 1-1.4 2.4-1.4 4s.4 3 1.3 4.1c.9 1.1 2 1.8 3.4 2.1v-12c-1.2.2-2.3.7-3.3 1.8zM254.2 109.4v1.5c0 2.9.9 5.1 2.7 6.8 1.8 1.6 4.4 2.5 7.8 2.5h14v9.7h-33.4v-9.5h3c-2.3-2-3.4-4.8-3.5-8.3 0-1.3 0-2.2.1-2.6h9.3v-.1zM254.2 83.1v1.5c0 2.9.9 5.1 2.7 6.8 1.8 1.6 4.4 2.5 7.8 2.5h14v9.7h-33.4v-9.5h3c-2.3-2-3.4-4.8-3.5-8.3 0-1.3 0-2.2.1-2.6l9.3-.1zM262.4 57.4h-17.1v-9.6h33.4v9.5h-2.3c2.1 2 3.1 4.9 3.1 8.6 0 3.7-1.3 6.7-3.8 8.8-2.6 2.2-6.2 3.3-10.9 3.3h-19.4v-9.7h19c1.9 0 3.4-.4 4.5-1.3s1.7-2.2 1.7-3.8c-.1-3.9-2.8-5.8-8.2-5.8zM278.9 26c0 7.8-4 11.7-11.9 11.7h-12.6v4.3h-9v-4.3h-9.3v-9.7h9.3v-7.3h9v7.3h11.4c1.6 0 2.6-.3 3.2-1 .6-.7.9-1.8.9-3.4v-2.8h8.8c.1 2.2.2 4 .2 5.2zM235.9 13.6c-1.6 0-2.9-.5-4-1.6s-1.6-2.4-1.6-4 .5-2.9 1.6-4 2.4-1.7 4-1.7 2.9.6 4 1.7 1.6 2.5 1.6 4-.5 2.8-1.6 3.9c-1.1 1.2-2.4 1.7-4 1.7zm42.8-10.4v9.7h-33.4v-9.7h33.4zM382.7 530.7v10.1h-47.7v-10.1l26.7-13.6-26.7-13.6v-10.1h47.7v10.1h-27.1l17.4 9.1v9l-17.4 9.1h27.1zM383.4 474.8c0 3.5-1 6.2-3 8.3-1.9 2.1-4.6 3.2-7.8 3.2-3.3 0-5.9-1.3-7.7-3.8-1.9-2.5-2.8-5.7-2.7-9.4 0-2.2.3-4.4.9-6.7h-.5c-1.6 0-2.9.5-3.9 1.5s-1.5 2.4-1.5 4.1c0 3.1 1.3 5.5 3.8 7.1l-5.8 6.1c-4.5-3.7-6.7-8.3-6.7-13.9 0-4.1 1.2-7.6 3.6-10.4s5.6-4.2 9.8-4.2h20.8v9.5h-2.2c2 2.3 2.9 5.2 2.9 8.6zm-11.6 1.9c.9 0 1.6-.4 2.2-1.2.5-.8.8-1.8.8-3 0-2.2-.6-4.2-1.9-6h-3.4c-.9 4-.9 6.9.2 8.7.5 1 1.2 1.5 2.1 1.5zM382.8 435.9c0 7.8-4 11.7-11.9 11.7h-12.6v4.3h-9v-4.3h-9.3v-9.7h9.3v-7.3h9v7.3h11.5c1.6 0 2.6-.3 3.2-1s.9-1.8.9-3.4v-2.9h8.8c.1 2.3.1 4.1.1 5.3zM382.8 410.2c0 7.8-4 11.7-11.9 11.7h-12.6v4.3h-9v-4.4h-9.3v-9.7h9.3v-7.3h9v7.3h11.5c1.6 0 2.6-.3 3.2-1s.9-1.8.9-3.4v-2.9h8.8c.1 2.4.1 4.1.1 5.4zM374.5 382.3c0-3.4-1.3-6.1-3.8-8.2l5.9-6.4c4.5 3.6 6.8 8.4 6.8 14.3 0 5-1.6 9.2-4.8 12.6-3.2 3.3-7.3 5-12.4 5s-9.3-1.5-12.7-4.6c-3.4-3.1-5.1-7.1-5.1-12s1.7-8.8 5.1-11.7c3.4-2.8 7.4-4.2 12-4.2l2.9.1v22.6c1.8-.3 3.2-1.1 4.3-2.4 1.2-1.4 1.8-3.1 1.8-5.1zm-15.9-3.3c-.9 1-1.4 2.4-1.4 4s.4 3 1.3 4.1 2 1.8 3.4 2.1v-12c-1.3.2-2.4.8-3.3 1.8zM366 326.5c4.9 0 9.1 1.7 12.4 5s5 7.5 5 12.6-1.7 9.3-5 12.6c-3.3 3.4-7.5 5-12.4 5s-9.1-1.7-12.5-5c-3.3-3.5-5-7.7-5-12.6s1.7-9.1 5-12.5 7.6-5.1 12.5-5.1zm6.1 12.1c-1.6-1.5-3.6-2.2-6.1-2.2s-4.5.7-6.1 2.2-2.4 3.3-2.4 5.6.8 4.1 2.4 5.6 3.6 2.2 6.1 2.2 4.5-.7 6.1-2.2 2.4-3.3 2.4-5.6-.8-4.2-2.4-5.6zM358.9 302.2c-7.4 0-13.4-2.3-17.8-6.9-4.5-4.6-6.8-10.7-6.8-18.2s3-13.7 8.9-18.5l7 6.8c-2.1 1.4-3.6 3.2-4.8 5.4-1.1 2.2-1.7 4.6-1.7 7.2 0 3.7 1.4 7 4.1 9.8s6.4 4.3 11.1 4.3 8.4-1.4 11.2-4.2c2.7-2.8 4.1-6.3 4.1-10.5 0-5.4-2.2-9.7-6.7-12.9l7.2-6.7c5.9 4.9 8.9 11.2 8.9 18.8s-2.2 13.9-6.7 18.6c-4.6 4.7-10.6 7-18 7zM383.4 241.2c0 3.5-1 6.2-3 8.3-1.9 2.1-4.6 3.2-7.8 3.2-3.3 0-5.9-1.3-7.7-3.8-1.9-2.5-2.8-5.7-2.7-9.4 0-2.2.3-4.4.9-6.7h-.5c-1.6 0-2.9.5-3.9 1.5s-1.5 2.4-1.5 4.1c0 3.1 1.3 5.5 3.8 7.1l-5.8 6.1c-4.5-3.7-6.7-8.3-6.7-13.9 0-4.1 1.2-7.6 3.6-10.4 2.4-2.8 5.6-4.2 9.8-4.2h20.8v9.5h-2.2c2 2.3 2.9 5.2 2.9 8.6zm-11.6 1.9c.9 0 1.6-.4 2.2-1.2.5-.8.8-1.8.8-3 0-2.2-.6-4.2-1.9-6h-3.4c-.9 4-.9 6.9.2 8.7.5 1 1.2 1.5 2.1 1.5zM358.2 193.6v1.5c0 2.9.9 5.1 2.7 6.8 1.8 1.6 4.4 2.5 7.8 2.5h14v9.7h-33.4v-9.5h3c-2.3-2-3.4-4.8-3.5-8.3 0-1.3 0-2.2.1-2.6l9.3-.1zM383.4 178.9c0 3.5-1 6.2-3 8.3-1.9 2.1-4.6 3.2-7.8 3.2-3.3 0-5.9-1.3-7.7-3.8-1.9-2.5-2.8-5.7-2.7-9.4 0-2.2.3-4.4.9-6.7h-.5c-1.6 0-2.9.5-3.9 1.5s-1.5 2.4-1.5 4.1c0 3.1 1.3 5.5 3.8 7.1l-5.8 6.1c-4.5-3.7-6.7-8.3-6.7-13.9 0-4.1 1.2-7.6 3.6-10.4 2.4-2.8 5.6-4.2 9.8-4.2h20.8v9.5h-2.2c2 2.3 2.9 5.1 2.9 8.6zm-11.6 1.8c.9 0 1.6-.4 2.2-1.2.5-.8.8-1.8.8-3 0-2.2-.6-4.2-1.9-6h-3.4c-.9 4-.9 6.9.2 8.7.5 1 1.2 1.5 2.1 1.5zM359.4 153.6c-3.3 0-5.9-1.3-7.9-3.8s-3-5.6-3-9.2c0-5 1.8-9.5 5.5-13.4l6.2 5.9c-2 2.7-3.1 5.3-3.1 7.9 0 1 .2 1.7.5 2.3s.8.9 1.3.8c.8 0 1.3-.8 1.7-2.4l1.1-5c1.6-7.3 5.1-11 10.4-11 3.3 0 6 1.3 8.1 3.8s3.1 5.9 3.1 10.1c0 3-.6 5.8-2 8.5-1.3 2.7-3 4.7-5 6.1l-5.9-5.9c2.8-3 4.2-6.2 4.2-9.5 0-1-.2-1.9-.6-2.6s-.9-1.1-1.5-1.1c-.8 0-1.5 1-2 3l-1 4.4c-1.5 7.4-5 11.1-10.1 11.1zM359.4 120.9c-3.3 0-5.9-1.3-7.9-3.8s-3-5.6-3-9.2c0-5 1.8-9.5 5.5-13.4l6.2 5.9c-2 2.7-3.1 5.3-3.1 7.9 0 1 .2 1.7.5 2.3s.8.9 1.3.8c.8 0 1.3-.8 1.7-2.4l1.1-5c1.6-7.3 5.1-11 10.4-11 3.3 0 6 1.3 8.1 3.8s3.1 5.9 3.1 10.1c0 3-.6 5.8-2 8.5-1.3 2.7-3 4.7-5 6.1l-5.9-5.9c2.8-3 4.2-6.2 4.2-9.5 0-1-.2-1.9-.6-2.6s-.9-1.1-1.5-1.1c-.8 0-1.5 1-2 3l-1 4.4c-1.5 7.5-5 11.1-10.1 11.1zM383.4 77c0 3.5-1 6.2-3 8.3s-4.6 3.2-7.8 3.2c-3.3 0-5.9-1.3-7.7-3.8-1.9-2.5-2.8-5.7-2.7-9.4 0-2.2.3-4.4.9-6.7h-.5c-1.6 0-2.9.5-3.9 1.5s-1.5 2.4-1.5 4.1c0 3.1 1.3 5.5 3.8 7.1l-5.8 6.1c-4.5-3.7-6.7-8.3-6.7-13.9 0-4.1 1.2-7.6 3.6-10.4 2.4-2.8 5.6-4.2 9.8-4.2h20.8v9.5h-2.2c2 2.3 2.9 5.1 2.9 8.6zm-11.6 1.8c.9 0 1.6-.4 2.2-1.2.5-.8.8-1.8.8-3 0-2.2-.6-4.2-1.9-6h-3.4c-.9 4-.9 6.9.2 8.7.5 1 1.2 1.5 2.1 1.5zM382.7 40.1v9.7h-47.7v-9.7h47.7zM374.5 16.1c0-3.4-1.3-6.1-3.8-8.2l5.9-6.4c4.5 3.6 6.8 8.4 6.8 14.3 0 5-1.6 9.2-4.8 12.6-3.2 3.3-7.3 5-12.4 5s-9.3-1.5-12.7-4.6c-3.4-3.1-5.1-7.1-5.1-12s1.7-8.8 5.1-11.7c3.4-2.8 7.4-4.2 12-4.2l2.9.1v22.6c1.8-.3 3.2-1.1 4.3-2.4 1.2-1.4 1.8-3.1 1.8-5.1zm-15.9-3.3c-.9 1-1.4 2.4-1.4 4s.4 3 1.3 4.1 2 1.8 3.4 2.1v-12c-1.3.2-2.4.8-3.3 1.8zM478.1 376.4c0-2-.7-3.6-2-4.8-1.3-1.2-3.1-1.7-5.5-1.7h-31.7v-10.1h31.3c5.5 0 9.8 1.4 12.7 4.2s4.4 6.9 4.5 12.1c0 6.3-2.5 10.9-7.5 13.8l-6.7-6.8c3.2-1.7 4.9-4 4.9-6.7zM487.4 341.9c0 3.5-1 6.2-3 8.3-1.9 2.1-4.6 3.2-7.8 3.2-3.3 0-5.9-1.3-7.7-3.8-1.9-2.5-2.8-5.7-2.7-9.4 0-2.2.3-4.4.9-6.7h-.5c-1.6 0-2.9.5-3.9 1.5s-1.5 2.4-1.5 4.1c0 3.1 1.3 5.5 3.8 7.1l-5.8 6.1c-4.5-3.7-6.7-8.3-6.7-13.9 0-4.1 1.2-7.6 3.6-10.4s5.6-4.2 9.8-4.2h20.8v9.5h-2.2c1.9 2.3 2.9 5.2 2.9 8.6zm-11.6 1.9c.9 0 1.6-.4 2.2-1.2.5-.8.8-1.8.8-3 0-2.2-.6-4.2-1.9-6h-3.4c-.9 4-.9 6.9.2 8.7.4 1 1.2 1.5 2.1 1.5zM470 305.1h16.7v9.7h-33.4v-9.5h2.3c-2.1-2.1-3.1-4.8-3.1-7.9 0-4.1 1.3-7.4 3.9-9.9 2.6-2.4 6.2-3.7 10.8-3.7h19.4v9.7h-18.6c-2 0-3.6.5-4.8 1.4-1.2.9-1.8 2.3-1.8 4.1.1 4.1 2.9 6.1 8.6 6.1zM443.8 275.6c-1.6 0-2.9-.5-4-1.6s-1.6-2.4-1.6-4 .5-2.9 1.6-4 2.4-1.7 4-1.7 2.9.6 4 1.7 1.6 2.5 1.6 4-.5 2.8-1.6 3.9-2.4 1.7-4 1.7zm42.8-10.4v9.7h-33.4v-9.7h33.4zM478.4 240.7c0-3.4-1.3-6.1-3.8-8.2l5.9-6.4c4.5 3.6 6.8 8.4 6.8 14.3 0 5-1.6 9.2-4.8 12.6-3.2 3.3-7.3 5-12.4 5s-9.3-1.5-12.7-4.6c-3.4-3.1-5.1-7.1-5.1-12s1.7-8.8 5.1-11.7c3.4-2.8 7.4-4.2 12-4.2l2.9.1v22.6c1.8-.3 3.2-1.1 4.3-2.4 1.3-1.4 1.8-3.1 1.8-5.1zm-15.8-3.3c-.9 1-1.4 2.4-1.4 4s.4 3 1.3 4.1 2 1.8 3.4 2.1v-12c-1.3.2-2.4.8-3.3 1.8zM486.8 206.5c0 7.8-4 11.7-11.9 11.7h-12.6v4.3h-9v-4.3h-9.3v-9.7h9.3v-7.3h9v7.3h11.5c1.6 0 2.6-.3 3.2-1s.9-1.8.9-3.4v-2.9h8.8c0 2.3.1 4 .1 5.3zM487.4 184.1c0 3.5-1 6.2-3 8.3-1.9 2.1-4.6 3.2-7.8 3.2-3.3 0-5.9-1.3-7.7-3.8-1.9-2.5-2.8-5.7-2.7-9.4 0-2.2.3-4.4.9-6.7h-.5c-1.6 0-2.9.5-3.9 1.5s-1.5 2.4-1.5 4.1c0 3.1 1.3 5.5 3.8 7.1l-5.8 6.1c-4.5-3.7-6.7-8.3-6.7-13.9 0-4.1 1.2-7.6 3.6-10.4 2.4-2.8 5.6-4.2 9.8-4.2h20.8v9.5h-2.2c1.9 2.3 2.9 5.2 2.9 8.6zm-11.6 1.9c.9 0 1.6-.4 2.2-1.2.5-.8.8-1.8.8-3 0-2.2-.6-4.2-1.9-6h-3.4c-.9 4-.9 6.9.2 8.7.4 1 1.2 1.5 2.1 1.5zM486.6 103.1v35.2h-47.7v-35.2h9.3v25.1h9.5v-24h9.2v24h10.4v-25.1h9.3zM453.3 62l46.5 18.5v10.2l-13.2-5.4-33.4 13v-10.8l20.6-7.5-20.6-7.8v-10.2h.1zM462.2 36.7v1.5c0 2.9.9 5.1 2.7 6.8 1.8 1.6 4.4 2.5 7.8 2.5h14v9.7h-33.4v-9.5h3c-2.3-2-3.4-4.8-3.5-8.3 0-1.3 0-2.2.1-2.6h9.3v-.1zM478.4 16.1c0-3.4-1.3-6.1-3.8-8.2l5.9-6.4c4.5 3.6 6.8 8.4 6.8 14.3 0 5-1.6 9.2-4.8 12.6-3.2 3.3-7.3 5-12.4 5s-9.3-1.5-12.7-4.6c-3.4-3.1-5.1-7.1-5.1-12s1.7-8.8 5.1-11.7c3.4-2.8 7.4-4.2 12-4.2l2.9.1v22.6c1.8-.3 3.2-1.1 4.3-2.4 1.3-1.4 1.8-3.1 1.8-5.1zm-15.8-3.3c-.9 1-1.4 2.4-1.4 4s.4 3 1.3 4.1 2 1.8 3.4 2.1v-12c-1.3.2-2.4.8-3.3 1.8zM566.8 468.3c-7.4 0-13.4-2.3-17.8-6.9-4.5-4.6-6.8-10.7-6.8-18.2s3-13.7 8.9-18.5l7 6.8c-2.1 1.4-3.6 3.2-4.8 5.4-1.1 2.2-1.7 4.6-1.7 7.2 0 3.7 1.4 7 4.1 9.8 2.7 2.8 6.4 4.3 11.1 4.3s8.4-1.4 11.2-4.2c2.7-2.8 4.1-6.3 4.1-10.5 0-5.4-2.2-9.7-6.7-12.9l7.2-6.7c5.9 4.9 8.9 11.2 8.9 18.8s-2.2 13.9-6.7 18.6c-4.6 4.7-10.6 7-18 7zM582.3 401.5c0-3.4-1.3-6.1-3.8-8.2l5.9-6.4c4.5 3.6 6.8 8.4 6.8 14.3 0 5-1.6 9.2-4.8 12.6-3.2 3.3-7.3 5-12.4 5-5.1 0-9.3-1.5-12.7-4.6s-5.1-7.1-5.1-12 1.7-8.8 5.1-11.7c3.4-2.8 7.4-4.2 12-4.2l2.9.1v22.6c1.8-.3 3.2-1.1 4.3-2.4 1.3-1.4 1.8-3.1 1.8-5.1zm-15.8-3.3c-.9 1-1.4 2.4-1.4 4s.4 3 1.3 4.1c.9 1.1 2 1.8 3.4 2.1v-12c-1.3.2-2.5.8-3.3 1.8zM567.2 380.5c-3.3 0-5.9-1.2-7.9-3.8-2-2.5-3-5.6-3-9.2 0-5 1.8-9.5 5.5-13.4l6.2 5.9c-2 2.7-3.1 5.3-3.1 7.9 0 1 .2 1.7.5 2.3.4.6.8.9 1.3.8.8 0 1.3-.8 1.7-2.4l1.1-5c1.6-7.3 5.1-11 10.4-11 3.3 0 6 1.3 8.1 3.8s3.1 5.9 3.1 10.1c0 3-.6 5.8-2 8.5-1.3 2.7-3 4.7-5 6.1l-5.9-5.9c2.8-3 4.2-6.2 4.2-9.5 0-1-.2-1.9-.6-2.6-.4-.8-.9-1.1-1.5-1.1-.8 0-1.5 1-2 3l-1 4.4c-1.5 7.5-5 11.1-10.1 11.1zM591.3 336.5c0 3.5-1 6.2-3 8.3-1.9 2.1-4.6 3.2-7.8 3.2-3.3 0-5.9-1.3-7.7-3.8-1.9-2.5-2.8-5.7-2.7-9.4 0-2.2.3-4.4.9-6.7h-.5c-1.6 0-2.9.5-3.9 1.5s-1.5 2.4-1.5 4.1c0 3.1 1.3 5.5 3.8 7.1l-5.8 6.1c-4.5-3.7-6.7-8.3-6.7-13.9 0-4.2 1.2-7.6 3.6-10.4 2.4-2.8 5.6-4.2 9.8-4.2h20.8v9.5h-2.2c1.9 2.3 2.9 5.2 2.9 8.6zm-11.6 1.8c.9 0 1.6-.4 2.2-1.2.5-.8.8-1.8.8-3 0-2.2-.6-4.2-1.9-6h-3.4c-.9 4-.9 6.9.2 8.7.4 1 1.2 1.5 2.1 1.5zM566 288.9v1.5c0 2.9.9 5.1 2.7 6.8 1.8 1.6 4.4 2.5 7.8 2.5h14v9.7h-33.4v-9.6h3c-2.3-2-3.4-4.8-3.5-8.3 0-1.3 0-2.2.1-2.6h9.3zM582.3 268.2c0-3.4-1.3-6.1-3.8-8.2l5.9-6.4c4.5 3.6 6.8 8.4 6.8 14.3 0 5-1.6 9.2-4.8 12.6-3.2 3.3-7.3 5-12.4 5-5.1 0-9.3-1.5-12.7-4.6s-5.1-7.1-5.1-12 1.7-8.8 5.1-11.7c3.4-2.8 7.4-4.2 12-4.2l2.9.1v22.6c1.8-.3 3.2-1.1 4.3-2.4 1.3-1.3 1.8-3 1.8-5.1zm-15.8-3.2c-.9 1-1.4 2.4-1.4 4s.4 3 1.3 4.1c.9 1.1 2 1.8 3.4 2.1v-12c-1.3.2-2.5.7-3.3 1.8zM571.8 216.6h18.7v10.1h-47.7v-32.9h9.3v22.8h10.3v-21.2h9.3v21.2h.1zM574.2 166.9h-17.1v-9.7h33.4v9.5h-2.3c2.1 2 3.1 4.9 3.1 8.6 0 3.7-1.3 6.7-3.8 8.9-2.6 2.2-6.2 3.3-10.9 3.3h-19.4v-9.7h19c1.9 0 3.4-.4 4.5-1.3s1.7-2.2 1.7-3.8c-.1-3.9-2.7-5.8-8.2-5.8zM590.5 138v9.7h-47.7v-9.7h47.7zM590.5 118.8v9.7h-47.7v-9.7h47.7zM573.8 76.7c4.9 0 9.1 1.7 12.4 5 3.3 3.3 5 7.5 5 12.6s-1.7 9.3-5 12.6c-3.3 3.4-7.5 5-12.4 5s-9.1-1.7-12.5-5c-3.3-3.5-5-7.7-5-12.6 0-5 1.7-9.1 5-12.5 3.5-3.4 7.7-5.1 12.5-5.1zm6.2 12.1c-1.6-1.5-3.6-2.2-6.1-2.2s-4.5.7-6.1 2.2-2.4 3.3-2.4 5.6.8 4.1 2.4 5.6 3.6 2.2 6.1 2.2 4.5-.7 6.1-2.2 2.4-3.3 2.4-5.6c-.1-2.3-.9-4.1-2.4-5.6zM573.8 60.2h16.7v9.7h-33.4v-9.5h2.3c-2.1-2.1-3.1-4.8-3.1-7.9 0-4.1 1.3-7.4 3.9-9.9s6.2-3.7 10.8-3.7h19.4v9.7h-18.6c-2 0-3.6.5-4.8 1.4s-1.8 2.3-1.8 4.1c.1 4.1 3 6.1 8.6 6.1zM582.3 15.5c0-3.4-1.3-6.1-3.8-8.2l5.9-6.4c4.5 3.6 6.8 8.4 6.8 14.3 0 5-1.6 9.2-4.8 12.6-3.2 3.3-7.3 5-12.4 5-5.1 0-9.3-1.5-12.7-4.6s-5.1-7.1-5.1-12 1.7-8.8 5.1-11.7c3.4-2.8 7.4-4.2 12-4.2l2.9.1v22.6c1.8-.3 3.2-1.1 4.3-2.4 1.3-1.3 1.8-3 1.8-5.1zm-15.8-3.2c-.9 1-1.4 2.4-1.4 4s.4 3 1.3 4.1 2 1.8 3.4 2.1v-12c-1.3.2-2.5.7-3.3 1.8zM670 588.5c-2.4 2.6-5.7 4-9.9 4-4.1 0-7.5-1.7-10.1-5.2s-3.9-7.6-3.9-12.4c0-7.4 2.5-13.6 7.6-18.4l7.2 6.8c-3.7 3.6-5.6 7.7-5.6 12.1 0 2.1.4 3.8 1.3 5.1s2 1.9 3.5 1.9c2.6 0 4.3-2.3 5.1-6.8l.8-4.7c1.7-10.7 6.6-16 14.8-16 4.4 0 7.9 1.8 10.6 5.3 2.7 3.5 4 8.1 4 13.7 0 4.1-.8 7.8-2.5 11.3s-3.9 6.3-6.7 8.5l-7-6.9c4.6-3.5 6.9-8 6.9-13.5 0-2.5-.5-4.5-1.4-6.1s-2.2-2.3-3.7-2.3c-2.5 0-4.2 2.2-5 6.7l-1 5.8c-1 4.8-2.7 8.5-5 11.1zM677.8 538.7h16.7v9.7h-47.7v-9.7h16.3c-1.8-1.9-2.7-4.5-2.7-7.7 0-4.1 1.3-7.4 3.9-9.9 2.6-2.4 6.2-3.7 10.8-3.7h19.4v9.7h-18.5c-2 0-3.6.5-4.8 1.4s-1.8 2.3-1.8 4.1c-.1 4.1 2.8 6.1 8.4 6.1zM695.2 499.9c0 3.5-1 6.2-3 8.3-1.9 2.1-4.6 3.2-7.8 3.2-3.3 0-5.9-1.3-7.7-3.8-1.9-2.5-2.8-5.7-2.7-9.4 0-2.2.3-4.4.9-6.7h-.5c-1.6 0-2.9.5-3.9 1.5s-1.5 2.4-1.5 4.1c0 3.1 1.3 5.5 3.8 7.1l-5.8 6.1c-4.5-3.7-6.7-8.3-6.7-13.9 0-4.1 1.2-7.6 3.6-10.4 2.4-2.8 5.6-4.2 9.8-4.2h20.8v9.5h-2.2c1.9 2.3 2.9 5.1 2.9 8.6zm-11.5 1.8c.9 0 1.6-.4 2.2-1.2.5-.8.8-1.8.8-3 0-2.2-.6-4.2-1.9-6h-3.4c-.9 4-.9 6.9.2 8.7.4 1 1.2 1.5 2.1 1.5zM651.7 473.1c-1.6 0-2.9-.5-4-1.6s-1.6-2.4-1.6-4 .5-2.9 1.6-4 2.4-1.7 4-1.7 2.9.6 4 1.7 1.6 2.5 1.6 4-.5 2.8-1.6 3.9c-1.2 1.2-2.5 1.7-4 1.7zm42.8-10.4v9.7h-33.4v-9.7h33.4zM694.5 423.5v10.1h-47.7v-10.1h47.7zM692 391.6h-.9c1.7 1.9 2.5 4.6 2.5 8.1 0 4.8-1.5 8.7-4.5 11.8-3 3-7.1 4.6-12.2 4.6s-9.2-1.6-12.2-4.8c-3-3.2-4.5-7-4.5-11.6 0-3.2 1.1-5.9 3.2-8.3h-2.4v-9.4h29.9c5.2 0 9.3 1.6 12.6 4.8 3.2 3.2 4.8 7.6 4.9 13.1 0 6.5-2.2 11.6-6.7 15.2l-6.4-6.7c2.8-1.9 4.2-4.7 4.2-8.4 0-2.5-.7-4.6-2-6.1-1.5-1.6-3.3-2.3-5.5-2.3zm-15-.2c-2.3 0-4.2.7-5.7 2.2-1.5 1.4-2.3 3.2-2.3 5.2s.8 3.8 2.3 5.2c1.5 1.4 3.4 2.1 5.7 2.1s4.2-.7 5.7-2.1 2.3-3.2 2.3-5.2-.8-3.8-2.3-5.2c-1.5-1.5-3.4-2.2-5.7-2.2zM677.8 362.7h16.7v9.7h-33.4v-9.5h2.3c-2.1-2.1-3.1-4.8-3.1-7.9 0-4.1 1.3-7.4 3.9-9.9s6.2-3.7 10.8-3.7h19.4v9.7h-18.6c-2 0-3.6.5-4.8 1.4s-1.8 2.3-1.8 4.1c.1 4.1 3 6.1 8.6 6.1zM695.2 323.9c0 3.5-1 6.2-3 8.3-1.9 2.1-4.6 3.2-7.8 3.2-3.3 0-5.9-1.3-7.7-3.8-1.9-2.5-2.8-5.7-2.7-9.4 0-2.2.3-4.4.9-6.7h-.5c-1.6 0-2.9.5-3.9 1.5s-1.5 2.4-1.5 4.1c0 3.1 1.3 5.5 3.8 7.1l-5.8 6.1c-4.5-3.7-6.7-8.3-6.7-13.9 0-4.2 1.2-7.6 3.6-10.4 2.4-2.8 5.6-4.2 9.8-4.2h20.8v9.5h-2.2c1.9 2.3 2.9 5.1 2.9 8.6zm-11.5 1.8c.9 0 1.6-.4 2.2-1.2.5-.8.8-1.8.8-3 0-2.2-.6-4.2-1.9-6h-3.4c-.9 4-.9 6.9.2 8.7.4 1 1.2 1.5 2.1 1.5zM694.7 284.9c0 7.8-4 11.7-11.9 11.7h-12.6v4.3h-9v-4.3h-9.3v-9.7h9.3v-7.3h9v7.3h11.5c1.6 0 2.6-.3 3.2-1 .6-.7.9-1.8.9-3.4v-2.9h8.8c-.1 2.3.1 4 .1 5.3zM669.8 272.4h-8.7v-26.9h7.8l16.8 14.7v-15.4h8.7v28h-7.7l-16.9-14.5v14.1zM694.5 194.8v22.5h-47.7v-21.3c0-5 1.2-9 3.5-12s5.5-4.4 9.5-4.4 7.3 1.6 9.8 4.8c2.9-4 6.5-6 10.8-6s7.7 1.5 10.3 4.5c2.5 3.1 3.8 7.1 3.8 11.9zm-38.3 3.2v9.3h9.6v-9.7c0-5.3-1.6-7.9-4.8-7.9-1.7 0-3 .6-3.7 1.9-.8 1.2-1.1 3.4-1.1 6.4zm18.3 9.3h10.7v-10.2c0-2.9-.5-5.1-1.3-6.5s-2.2-2.1-4.2-2.1c-3.5 0-5.2 2.8-5.2 8.3v10.5zM670 150.4v1.5c0 2.9.9 5.1 2.7 6.8 1.8 1.6 4.4 2.5 7.8 2.5h14v9.7h-33.4v-9.5h3c-2.3-2-3.4-4.8-3.5-8.3 0-1.3 0-2.2.1-2.6l9.3-.1zM695.2 135.7c0 3.5-1 6.2-3 8.3-1.9 2.1-4.6 3.2-7.8 3.2-3.3 0-5.9-1.3-7.7-3.8-1.9-2.5-2.8-5.7-2.7-9.4 0-2.2.3-4.4.9-6.7h-.5c-1.6 0-2.9.5-3.9 1.5s-1.5 2.4-1.5 4.1c0 3.1 1.3 5.5 3.8 7.1l-5.8 6.1c-4.5-3.7-6.7-8.3-6.7-13.9 0-4.1 1.2-7.6 3.6-10.4 2.4-2.8 5.6-4.2 9.8-4.2h20.8v9.5h-2.2c1.9 2.3 2.9 5.1 2.9 8.6zm-11.5 1.8c.9 0 1.6-.4 2.2-1.2.5-.8.8-1.8.8-3 0-2.2-.6-4.2-1.9-6h-3.4c-.9 4-.9 6.9.2 8.7.4 1 1.2 1.5 2.1 1.5zM677.8 98.8h16.7v9.7h-33.4v-9.5h2.3c-2.1-2.1-3.1-4.8-3.1-7.9 0-4.1 1.3-7.4 3.9-9.9s6.2-3.7 10.8-3.7h19.4v9.7h-18.6c-2 0-3.6.5-4.8 1.4-1.2.9-1.8 2.3-1.8 4.1.1 4 3 6.1 8.6 6.1zM694.5 59.1v9.7h-47.7v-9.7h24.9l-10.6-9.3v-12.2l13.9 12.3 19.5-12.9v11.8l-12.7 8 2.5 2.2h10.2v.1zM677.8.4c4.9 0 9.1 1.7 12.4 5 3.3 3.3 5 7.5 5 12.6s-1.7 9.3-5 12.6c-3.3 3.4-7.5 5-12.4 5s-9.1-1.7-12.5-5c-3.3-3.5-5-7.7-5-12.6 0-5 1.7-9.1 5-12.5 3.5-3.4 7.7-5.1 12.5-5.1zm6 12.1c-1.6-1.5-3.6-2.2-6.1-2.2s-4.5.7-6.1 2.2-2.4 3.3-2.4 5.6.8 4.1 2.4 5.6 3.6 2.2 6.1 2.2 4.5-.7 6.1-2.2 2.4-3.3 2.4-5.6c.1-2.3-.7-4.2-2.4-5.6zM789.8 602.1c0-2-.7-3.6-2-4.8s-3.1-1.7-5.5-1.7h-31.6v-10.1h31.3c5.5 0 9.8 1.4 12.7 4.2s4.4 6.9 4.5 12.1c0 6.3-2.5 10.9-7.5 13.8l-6.7-6.8c3.2-1.7 4.8-4 4.8-6.7zM799.2 567.6c0 3.5-1 6.2-3 8.3-1.9 2.1-4.6 3.2-7.8 3.2-3.3 0-5.9-1.3-7.7-3.8-1.9-2.5-2.8-5.7-2.7-9.4 0-2.2.3-4.4.9-6.7h-.5c-1.6 0-2.9.5-3.9 1.5s-1.5 2.4-1.5 4.1c0 3.1 1.3 5.5 3.8 7.2l-5.8 6.1c-4.5-3.7-6.7-8.3-6.7-13.9 0-4.1 1.2-7.6 3.6-10.4 2.4-2.8 5.6-4.2 9.8-4.2h20.8v9.5h-2.2c1.9 2.2 2.9 5.1 2.9 8.5zm-11.5 1.9c.9 0 1.6-.4 2.2-1.2.5-.8.8-1.8.8-3 0-2.2-.6-4.2-1.9-6h-3.4c-.9 4-.9 6.9.2 8.7.4 1 1.2 1.5 2.1 1.5zM781.8 530.8h16.7v9.7h-33.5v-9.5h2.3c-2.1-2.1-3.1-4.8-3.1-7.9 0-4.1 1.3-7.4 3.9-9.9 2.6-2.4 6.2-3.7 10.8-3.7h19.4v9.7h-18.6c-2 0-3.6.5-4.8 1.4s-1.8 2.3-1.8 4.1c.1 4.1 3.1 6.1 8.7 6.1zM798.5 491.2v9.7h-47.7v-9.7h24.9l-10.6-9.2v-12.2l13.8 12.3 19.6-12.9v11.8l-12.7 8 2.5 2.2h10.2zM781.8 432.5c4.9 0 9.1 1.7 12.4 5 3.3 3.3 5 7.5 5 12.6s-1.7 9.3-5 12.6-7.5 5-12.4 5-9.1-1.7-12.5-5c-3.3-3.5-5-7.7-5-12.6 0-5 1.7-9.1 5-12.5 3.5-3.4 7.5-5.1 12.5-5.1zm6 12.1c-1.6-1.5-3.6-2.2-6.1-2.2s-4.5.7-6.1 2.2-2.4 3.3-2.4 5.6.8 4.1 2.4 5.6c1.6 1.5 3.6 2.2 6.1 2.2s4.5-.7 6.1-2.2 2.4-3.3 2.4-5.6-.7-4.2-2.4-5.6zM765.2 407.4v-10.3l33.4 11.8v9.9l-33.4 11.9v-10.3l20.6-6.5-20.6-6.5zM755.7 392.7c-1.6 0-2.9-.5-4-1.6s-1.6-2.4-1.6-4 .5-2.9 1.6-4 2.4-1.7 4-1.7 2.9.6 4 1.7 1.6 2.5 1.6 4-.5 2.8-1.6 3.9c-1.2 1.1-2.5 1.7-4 1.7zm42.8-10.4v9.7h-33.5v-9.7h33.5zM799.2 357.5c0 5.1-1.7 9.3-5 12.6s-7.5 5-12.4 5-9.1-1.7-12.5-5c-3.3-3.5-5-7.8-5-12.9s2.2-9.7 6.7-13.7l6.3 6.5c-2.6 2.1-3.9 4.3-3.9 6.8s.8 4.5 2.4 6c1.6 1.5 3.6 2.3 6 2.3s4.5-.8 6.1-2.3 2.3-3.5 2.3-5.8c0-3-1.5-5.6-4.4-7.8l6.3-6.5c4.9 3.8 7.1 8.7 7.1 14.8zM779.8 306.9h18.7v10.1h-47.7v-32.9h9.3v22.8h10.3v-21.2h9.3v21.2h.1zM774 256.6v1.5c0 2.9.9 5.1 2.7 6.8 1.8 1.6 4.4 2.5 7.8 2.5h14v9.7h-33.5v-9.5h3c-2.3-2-3.4-4.8-3.5-8.3 0-1.3 0-2.2.1-2.6l9.4-.1zM799.2 241.8c0 3.5-1 6.2-3 8.3-1.9 2.1-4.6 3.2-7.8 3.2-3.3 0-5.9-1.3-7.7-3.8-1.9-2.5-2.8-5.7-2.7-9.4 0-2.2.3-4.4.9-6.7h-.5c-1.6 0-2.9.5-3.9 1.5s-1.5 2.4-1.5 4.1c0 3.1 1.3 5.5 3.8 7.1l-5.8 6.1c-4.5-3.7-6.7-8.3-6.7-13.9 0-4.1 1.2-7.6 3.6-10.4 2.4-2.8 5.6-4.2 9.8-4.2h20.8v9.5h-2.2c1.9 2.3 2.9 5.1 2.9 8.6zm-11.5 1.8c.9 0 1.6-.4 2.2-1.2.5-.8.8-1.8.8-3 0-2.2-.6-4.2-1.9-6h-3.4c-.9 4-.9 6.9.2 8.7.4 1 1.2 1.5 2.1 1.5zM781.8 205h16.7v9.7h-33.5v-9.5h2.3c-2.1-2.1-3.1-4.8-3.1-7.9 0-4.1 1.3-7.4 3.9-9.9 2.6-2.4 6.2-3.7 10.8-3.7h19.4v9.7h-18.6c-2 0-3.6.5-4.8 1.4s-1.8 2.3-1.8 4.1c.1 4 3.1 6.1 8.7 6.1zM799.2 160.1c0 5.1-1.7 9.3-5 12.6s-7.5 5-12.4 5-9.1-1.7-12.5-5c-3.3-3.5-5-7.8-5-12.9 0-5.1 2.2-9.7 6.7-13.7l6.3 6.5c-2.6 2.1-3.9 4.3-3.9 6.8s.8 4.5 2.4 6c1.6 1.6 3.6 2.3 6 2.3s4.5-.8 6.1-2.3c1.6-1.6 2.3-3.5 2.3-5.8 0-3-1.5-5.6-4.4-7.8l6.3-6.5c4.9 3.8 7.1 8.6 7.1 14.8zM790.2 124.7c0-3.4-1.3-6.1-3.8-8.2l5.9-6.4c4.5 3.6 6.8 8.4 6.8 14.3 0 5-1.6 9.2-4.8 12.6-3.2 3.3-7.3 5-12.4 5-5.1 0-9.3-1.5-12.7-4.6s-5.1-7.1-5.1-12 1.7-8.8 5.1-11.7c3.4-2.8 7.4-4.2 12-4.2l2.9.1v22.6c1.8-.3 3.2-1.1 4.3-2.4s1.8-3 1.8-5.1zm-15.9-3.2c-.9 1-1.4 2.4-1.4 4s.4 3 1.3 4.1 2 1.8 3.4 2.1v-12c-1.1.2-2.3.7-3.3 1.8zM775.2 103.9c-3.3 0-5.9-1.3-7.9-3.8s-3-5.6-3-9.2c0-5 1.8-9.5 5.5-13.4l6.2 5.9c-2 2.7-3.1 5.3-3.1 7.9 0 1 .2 1.7.5 2.3s.8.9 1.3.8c.8 0 1.3-.8 1.7-2.4l1.1-5c1.6-7.3 5.1-11 10.4-11 3.3 0 6 1.3 8.1 3.8s3.1 5.9 3.1 10.1c0 3-.6 5.8-2 8.5-1.3 2.7-3 4.7-5 6.1l-5.9-5.9c2.8-3 4.2-6.2 4.2-9.5 0-1-.2-1.9-.6-2.6-.4-.8-.9-1.1-1.5-1.1-.8 0-1.5 1-2 3l-1 4.4c-1.5 7.4-5 11.1-10.1 11.1zM799.2 54c0 5.1-1.7 9.3-5 12.6-3.3 3.3-7.5 5-12.4 5s-9.1-1.7-12.5-5c-3.3-3.5-5-7.8-5-12.9s2.2-9.7 6.7-13.7l6.3 6.5c-2.6 2.1-3.9 4.3-3.9 6.8s.8 4.5 2.4 6c1.6 1.6 3.6 2.3 6 2.3s4.5-.8 6.1-2.3 2.3-3.5 2.3-5.8c0-3-1.5-5.6-4.4-7.8l6.3-6.5c4.9 3.8 7.1 8.7 7.1 14.8zM781.8.7c4.9 0 9.1 1.7 12.4 5 3.3 3.3 5 7.5 5 12.6s-1.7 9.3-5 12.6-7.5 5-12.4 5-9.1-1.7-12.5-5c-3.3-3.5-5-7.7-5-12.6 0-5 1.7-9.1 5-12.5 3.5-3.4 7.5-5.1 12.5-5.1zm6 12.1c-1.6-1.5-3.6-2.2-6.1-2.2s-4.5.7-6.1 2.2-2.4 3.3-2.4 5.6.8 4.1 2.4 5.6 3.6 2.2 6.1 2.2 4.5-.7 6.1-2.2 2.4-3.3 2.4-5.6-.7-4.2-2.4-5.6zM854.8 464.4v-9.6l47.7-18.7v10.5l-9.4 3.8v18.4l9.4 3.8v10.5l-47.7-18.7zm29.2-10.8l-15.6 5.9 15.6 5.9v-11.8zM885.8 421.2h16.7v9.7h-33.5v-9.5h2.3c-2.1-2.1-3.1-4.8-3.1-7.9 0-4.1 1.3-7.4 3.9-9.9 2.6-2.4 6.2-3.7 10.8-3.7h19.4v9.7h-18.6c-2 0-3.6.5-4.8 1.4s-1.8 2.3-1.8 4.1c.1 4.1 2.9 6.1 8.7 6.1zM902.5 379.4c0 7.8-4 11.7-11.9 11.7h-12.6v4.3h-9v-4.3h-9.3v-9.7h9.3v-7.3h9v7.3h11.5c1.6 0 2.6-.3 3.2-1 .6-.7.9-1.8.9-3.4v-2.9h8.8c.1 2.3.1 4 .1 5.3zM885.8 333.5c4.9 0 9.1 1.7 12.4 5s5 7.5 5 12.6-1.7 9.3-5 12.6-7.5 5-12.4 5-9.1-1.7-12.5-5c-3.3-3.5-5-7.7-5-12.6 0-5 1.7-9.1 5-12.5s7.5-5.1 12.5-5.1zm6 12.1c-1.6-1.5-3.6-2.2-6.1-2.2s-4.5.7-6.1 2.2-2.4 3.3-2.4 5.6.8 4.1 2.4 5.6c1.6 1.5 3.6 2.2 6.1 2.2s4.5-.7 6.1-2.2 2.4-3.3 2.4-5.6-.7-4.1-2.4-5.6zM885.8 317h16.7v9.7h-33.5v-9.5h2.3c-2.1-2.1-3.1-4.8-3.1-7.9 0-4.1 1.3-7.4 3.9-9.9 2.6-2.4 6.2-3.7 10.8-3.7h19.4v9.7h-18.6c-2 0-3.6.5-4.8 1.4s-1.8 2.3-1.8 4.1c.1 4.1 2.9 6.1 8.7 6.1zM859.7 287.4c-1.6 0-2.9-.5-4-1.6s-1.6-2.4-1.6-4 .5-2.9 1.6-4 2.4-1.7 4-1.7 2.9.6 4 1.7 1.6 2.5 1.6 4-.5 2.8-1.6 3.9c-1.2 1.1-2.5 1.7-4 1.7zm42.8-10.4v9.7h-33.5v-9.7h33.5zM885.8 234.4c4.9 0 9.1 1.7 12.4 5 3.3 3.3 5 7.5 5 12.6s-1.7 9.3-5 12.6-7.5 5-12.4 5-9.1-1.7-12.5-5c-3.3-3.5-5-7.7-5-12.6 0-4.9 1.7-9.1 5-12.5s7.5-5.1 12.5-5.1zm6 12.1c-1.6-1.5-3.6-2.2-6.1-2.2s-4.5.7-6.1 2.2-2.4 3.3-2.4 5.6.8 4.1 2.4 5.6c1.6 1.5 3.6 2.2 6.1 2.2s4.5-.7 6.1-2.2 2.4-3.3 2.4-5.6-.7-4.1-2.4-5.6zM902.5 198v10.1h-47.7v-10.1l26.7-13.6-26.7-13.6v-10.1h47.7v10.1h-27.1l17.4 9.1v9l-17.4 9.1h27.1zM903.2 142.1c0 3.5-1 6.2-3 8.3s-4.6 3.2-7.8 3.2c-3.3 0-5.9-1.3-7.7-3.8-1.9-2.5-2.8-5.7-2.7-9.4 0-2.2.3-4.4.9-6.7h-.5c-1.6 0-2.9.5-3.9 1.5s-1.5 2.4-1.5 4.1c0 3.1 1.3 5.5 3.8 7.1l-5.8 6.1c-4.5-3.7-6.7-8.3-6.7-13.9 0-4.1 1.2-7.6 3.6-10.4 2.4-2.8 5.6-4.2 9.8-4.2h20.8v9.5h-2.2c1.9 2.3 2.9 5.1 2.9 8.6zm-11.7 1.8c.9 0 1.6-.4 2.2-1.2.5-.8.8-1.8.8-3 0-2.2-.6-4.2-1.9-6h-3.4c-.9 4-.9 6.9.2 8.7.6 1 1.3 1.5 2.1 1.5zM878 94.5v1.5c0 2.9.9 5.1 2.7 6.8 1.8 1.6 4.4 2.5 7.8 2.5h14v9.7h-33.5v-9.5h3c-2.3-2-3.4-4.8-3.5-8.3 0-1.3 0-2.2.1-2.6l9.4-.1zM878 68.1v1.5c0 2.9.9 5.1 2.7 6.8 1.8 1.6 4.4 2.5 7.8 2.5h14v9.7h-33.5v-9.5h3c-2.3-2-3.4-4.8-3.5-8.3 0-1.3 0-2.2.1-2.6l9.4-.1zM903.2 53.3c0 3.5-1 6.2-3 8.3s-4.6 3.2-7.8 3.2c-3.3 0-5.9-1.3-7.7-3.8-1.9-2.5-2.8-5.7-2.7-9.4 0-2.2.3-4.4.9-6.7h-.5c-1.6 0-2.9.5-3.9 1.5s-1.5 2.4-1.5 4.1c0 3.1 1.3 5.5 3.8 7.1l-5.8 6.1c-4.5-3.7-6.7-8.3-6.7-13.9 0-4.1 1.2-7.6 3.6-10.4 2.4-2.8 5.6-4.2 9.8-4.2h20.8v9.6h-2.2c1.9 2.2 2.9 5 2.9 8.5zm-11.7 1.8c.9 0 1.6-.4 2.2-1.2.5-.8.8-1.8.8-3 0-2.2-.6-4.2-1.9-6h-3.4c-.9 4-.9 6.9.2 8.7.6 1 1.3 1.5 2.1 1.5zM879.2 27.9c-3.3 0-5.9-1.3-7.9-3.8s-3-5.6-3-9.2c0-5 1.8-9.5 5.5-13.4l6.2 5.9c-2 2.7-3.1 5.3-3.1 7.9 0 1 .2 1.7.5 2.3.4.6.8.9 1.3.8.8 0 1.3-.8 1.7-2.4l1.1-5c1.6-7.3 5.1-11 10.4-11 3.3 0 6 1.3 8.1 3.8s3.1 5.9 3.1 10.1c0 3-.6 5.8-2 8.5-1.3 2.7-3 4.7-5 6.1l-5.9-5.9c2.8-3 4.2-6.2 4.2-9.5 0-1-.2-1.9-.6-2.6s-.9-1.1-1.5-1.1c-.8 0-1.5 1-2 3l-1 4.4c-1.5 7.5-5.1 11.1-10.1 11.1zM981.8 541.4c-2.4 2.6-5.7 4-9.9 4-4.1 0-7.5-1.7-10.1-5.2s-3.9-7.6-3.9-12.4c0-7.4 2.5-13.6 7.6-18.4l7.2 6.8c-3.7 3.6-5.6 7.7-5.6 12.1 0 2.1.4 3.8 1.3 5.1s2 1.9 3.5 1.9c2.6 0 4.3-2.3 5.1-6.8l.8-4.7c1.7-10.7 6.6-16 14.8-16 4.4 0 7.9 1.8 10.6 5.3 2.7 3.5 4 8.1 4 13.7 0 4.1-.8 7.8-2.5 11.3s-3.9 6.3-6.7 8.5l-7-6.9c4.6-3.5 6.9-8 6.9-13.5 0-2.5-.5-4.5-1.4-6.1-.9-1.5-2.2-2.3-3.7-2.3-2.5 0-4.2 2.2-5 6.7l-1 5.8c-1 4.8-2.6 8.5-5 11.1zM998.2 484.4c0-3.4-1.3-6.1-3.8-8.2l5.9-6.4c4.5 3.6 6.8 8.3 6.8 14.3 0 5-1.6 9.2-4.8 12.6-3.2 3.3-7.3 4.9-12.4 4.9s-9.3-1.5-12.7-4.6-5.1-7.1-5.1-12 1.7-8.8 5.1-11.7c3.4-2.8 7.4-4.2 12-4.2l2.9.1v22.6c1.8-.3 3.2-1.1 4.3-2.4 1.3-1.3 1.8-3 1.8-5zm-15.9-3.3c-.9 1-1.4 2.4-1.4 4s.4 3 1.3 4.1c.9 1.1 2 1.8 3.4 2.1v-12c-1.3.2-2.4.8-3.3 1.8zM972.2 444.3c0-4.7 1.6-8.6 4.8-11.8 3.2-3.2 7.5-4.9 12.7-4.9s9.4 1.6 12.6 4.8c3.2 3.2 4.8 7.2 4.8 11.9 0 3.7-1 6.6-3.1 8.7h2.4v9.4h-47.7v-9.6h16.5c-2-2.2-3-5-3-8.5zm23.8-4.6c-1.6-1.5-3.7-2.2-6.3-2.2-2.5 0-4.6.7-6.3 2.2s-2.5 3.3-2.5 5.6c0 2.2.8 4.1 2.5 5.6 1.7 1.4 3.8 2.2 6.3 2.2s4.6-.7 6.3-2.2c1.6-1.5 2.4-3.4 2.4-5.6.1-2.3-.7-4.1-2.4-5.6zM1007.2 411.2c0 3.5-1 6.2-3 8.3-1.9 2.1-4.6 3.2-7.8 3.2-3.3 0-5.9-1.3-7.7-3.8-1.9-2.5-2.8-5.7-2.7-9.4 0-2.2.3-4.4.9-6.7h-.5c-1.6 0-2.9.5-3.9 1.5s-1.5 2.4-1.5 4.1c0 3.1 1.3 5.5 3.8 7.2l-5.8 6.1c-4.5-3.7-6.7-8.3-6.7-13.9 0-4.1 1.2-7.6 3.6-10.4 2.4-2.8 5.6-4.2 9.8-4.2h20.8v9.5h-2.2c1.9 2.2 2.9 5 2.9 8.5zm-11.7 1.8c.9 0 1.6-.4 2.2-1.2s.8-1.8.8-3c0-2.2-.6-4.2-1.9-6h-3.4c-.9 4-.9 6.9.2 8.7.4 1 1.3 1.5 2.1 1.5zM983.2 385.9c-3.3 0-5.9-1.3-7.9-3.8s-3-5.6-3-9.2c0-5 1.8-9.5 5.5-13.4l6.2 5.9c-2 2.7-3.1 5.3-3.1 7.9 0 1 .2 1.7.5 2.3.4.6.8.9 1.3.8.8 0 1.3-.8 1.7-2.4l1.1-5c1.6-7.3 5.1-11 10.4-11 3.3 0 6 1.3 8.1 3.8s3.1 5.9 3.1 10.1c0 3-.6 5.8-2 8.5s-3 4.7-5 6.1l-5.9-5.9c2.8-3 4.2-6.2 4.2-9.5 0-1-.2-1.9-.6-2.6-.4-.8-.9-1.1-1.5-1.1-.8 0-1.5 1-2 3l-1 4.4c-1.6 7.5-5.1 11.1-10.1 11.1zM1006.5 338.9c0 7.8-4 11.7-11.9 11.7h-12.6v4.3h-9v-4.3h-9.3v-9.7h9.3v-7.3h9v7.3h11.5c1.6 0 2.6-.3 3.2-1 .6-.7.9-1.8.9-3.4v-2.9h8.8c.1 2.3.1 4.1.1 5.3zM963.5 326.5c-1.6 0-2.9-.5-4-1.6s-1.6-2.4-1.6-4 .5-2.9 1.6-4 2.4-1.7 4-1.7 2.9.6 4 1.7 1.6 2.5 1.6 4-.5 2.8-1.6 3.9c-1 1.2-2.3 1.7-4 1.7zm42.8-10.4v9.7h-33.4v-9.7h33.4zM1007.2 297.5c0 3.5-1 6.2-3 8.3s-4.6 3.2-7.8 3.2c-3.3 0-5.9-1.3-7.7-3.8-1.9-2.5-2.8-5.7-2.7-9.4 0-2.2.3-4.4.9-6.7h-.5c-1.6 0-2.9.5-3.9 1.5s-1.5 2.4-1.5 4.1c0 3.1 1.3 5.5 3.8 7.1l-5.8 6.1c-4.5-3.7-6.7-8.3-6.7-13.9 0-4.1 1.2-7.6 3.6-10.4 2.4-2.8 5.6-4.2 9.8-4.2h20.8v9.5h-2.2c1.9 2.3 2.9 5.1 2.9 8.6zm-11.7 1.8c.9 0 1.6-.4 2.2-1.2.5-.8.8-1.8.8-3 0-2.2-.6-4.2-1.9-6h-3.4c-.9 4-.9 6.9.2 8.7.4 1 1.3 1.5 2.1 1.5zM989.8 260.7h16.7v9.7h-33.5v-9.6h2.3c-2.1-2.1-3.1-4.8-3.1-7.9 0-4.1 1.3-7.4 3.9-9.9 2.6-2.4 6.2-3.7 10.8-3.7h19.4v9.7h-18.6c-2 0-3.6.5-4.8 1.4s-1.8 2.3-1.8 4.1c.1 4.1 2.9 6.2 8.7 6.2zM989.7 198.1c4.9 0 9.1 1.7 12.4 5 3.3 3.3 5 7.5 5 12.6s-1.7 9.3-5 12.6-7.5 5-12.4 5-9.1-1.7-12.5-5c-3.3-3.5-5-7.7-5-12.6s1.7-9.1 5-12.5 7.6-5.1 12.5-5.1zm6.1 12c-1.6-1.5-3.6-2.2-6.1-2.2s-4.5.7-6.1 2.2-2.4 3.3-2.4 5.6.8 4.1 2.4 5.6c1.6 1.5 3.6 2.2 6.1 2.2s4.5-.7 6.1-2.2 2.4-3.3 2.4-5.6-.9-4.1-2.4-5.6zM1006.3 161.8v10.1h-47.7v-10.1l26.7-13.6-26.7-13.6v-10.1h47.7v10.1h-27.1l17.4 9.1v9l-17.4 9.1h27.1zM1007.2 105.9c0 3.5-1 6.2-3 8.3s-4.6 3.2-7.8 3.2c-3.3 0-5.9-1.3-7.7-3.8-1.9-2.5-2.8-5.7-2.7-9.4 0-2.2.3-4.4.9-6.7h-.5c-1.6 0-2.9.5-3.9 1.5s-1.5 2.4-1.5 4.1c0 3.1 1.3 5.5 3.8 7.1l-5.8 6.1c-4.5-3.7-6.7-8.3-6.7-13.9 0-4.1 1.2-7.6 3.6-10.4 2.4-2.8 5.6-4.2 9.8-4.2h20.8v9.5h-2.2c1.9 2.3 2.9 5.1 2.9 8.6zm-11.7 1.8c.9 0 1.6-.4 2.2-1.2.5-.8.8-1.8.8-3 0-2.2-.6-4.2-1.9-6h-3.4c-.9 4-.9 6.9.2 8.7.4 1 1.3 1.5 2.1 1.5zM990 59h-17v-9.7h33.4v9.5h-2.3c2 2 3.1 4.9 3.1 8.6 0 3.7-1.3 6.7-3.8 8.8-2.6 2.2-6.2 3.3-10.9 3.3h-19.5v-9.7h19c1.9 0 3.4-.4 4.5-1.3s1.7-2.2 1.7-3.8c0-3.8-2.7-5.7-8.2-5.7zM982 19.4v1.5c0 2.9.9 5.1 2.7 6.8 1.8 1.6 4.4 2.5 7.8 2.5h14v9.6h-33.5v-9.5h3c-2.3-2-3.4-4.8-3.5-8.3 0-1.3 0-2.2.1-2.6h9.4zM963.5 13.9c-1.6 0-2.9-.5-4-1.6s-1.6-2.4-1.6-4 .5-2.9 1.6-4 2.4-1.7 4-1.7 2.9.6 4 1.7 1.6 2.5 1.6 4-.5 2.8-1.6 3.9-2.3 1.7-4 1.7zm42.8-10.4v9.7h-33.4v-9.7h33.4zM1094.9 447h15.4v10.1h-47.7v-19.7c0-5.3 1.4-9.7 4.2-13.1 2.8-3.4 6.6-5.1 11.4-5.1 3.3 0 6.3.8 8.9 2.5s4.6 4 6 6.9l17.3-10.6v11.5l-15.4 9.4v8.1h-.1zm-23-7.9v7.9h13.8v-7.9c0-6.6-2.3-10-7-10-4.5.1-6.8 3.4-6.8 10zM1093.7 379.2c4.9 0 9.1 1.7 12.4 5s5 7.5 5 12.6-1.7 9.3-5 12.6-7.5 5-12.4 5-9.1-1.7-12.5-5c-3.3-3.5-5-7.7-5-12.6 0-5 1.7-9.1 5-12.5s7.6-5.1 12.5-5.1zm6.1 12.1c-1.6-1.5-3.6-2.2-6.1-2.2s-4.5.7-6.1 2.2-2.4 3.3-2.4 5.6.8 4.1 2.4 5.6 3.6 2.2 6.1 2.2 4.5-.7 6.1-2.2 2.4-3.3 2.4-5.6-.9-4.1-2.4-5.6zM1093.2 362.8h17.1v9.7h-33.4v-9.5h2.3c-2.1-2.1-3.1-5-3.1-8.5s1.3-6.5 4-8.8c-2.7-2.7-4-6.2-4-10.4s1.3-7.5 3.9-10c2.6-2.4 6.2-3.6 10.9-3.6h19.4v9.7h-19c-1.9 0-3.4.4-4.6 1.3s-1.7 2.2-1.7 3.9.7 3.1 2 4.1 3.1 1.5 5.4 1.5h17.8v9.7h-19c-1.9 0-3.4.4-4.6 1.3-1.1.9-1.7 2.1-1.7 3.8.3 3.9 2.9 5.8 8.3 5.8zM1111.2 304.2c0 3.5-1 6.2-3 8.3-1.9 2.1-4.6 3.2-7.8 3.2-3.3 0-5.9-1.3-7.7-3.8-1.9-2.5-2.8-5.7-2.7-9.4 0-2.2.3-4.4.9-6.7h-.5c-1.6 0-2.9.5-3.9 1.5s-1.5 2.4-1.5 4.1c0 3.1 1.3 5.5 3.8 7.2l-5.8 6.1c-4.5-3.7-6.7-8.3-6.7-13.9 0-4.1 1.2-7.6 3.6-10.4s5.6-4.2 9.8-4.2h20.8v9.5h-2.2c1.9 2.2 2.9 5.1 2.9 8.5zm-11.8 1.9c.9 0 1.6-.4 2.2-1.2s.8-1.8.8-3c0-2.2-.6-4.2-1.9-6h-3.4c-.9 4-.9 6.9.2 8.7.5 1 1.3 1.5 2.1 1.5zM1093.7 267.4h16.7v9.7h-33.4v-9.5h2.3c-2.1-2.1-3.1-4.8-3.1-7.9 0-4.1 1.3-7.4 3.9-9.9 2.6-2.4 6.2-3.7 10.8-3.7h19.4v9.7h-18.5c-2 0-3.6.5-4.8 1.4s-1.8 2.3-1.8 4.1c0 4.1 2.9 6.1 8.5 6.1zM1086.4 220.6c-7.2 0-13-2.3-17.6-6.9-4.6-4.6-6.9-10.4-6.9-17.3 0-7 2.3-12.8 7-17.5s10.5-7 17.6-7 13 2.3 17.6 7c4.7 4.7 7 10.5 7 17.5 0 6.9-2.3 12.7-6.9 17.3-4.6 4.6-10.5 6.9-17.8 6.9zm0-10c4.3 0 7.9-1.3 10.9-3.9 3-2.6 4.4-6.1 4.4-10.4s-1.5-7.9-4.4-10.4c-3-2.5-6.6-3.8-10.8-3.8-4.2 0-7.8 1.3-10.8 4s-4.5 6.1-4.5 10.4c0 4.2 1.5 7.7 4.4 10.3 3 2.5 6.6 3.8 10.8 3.8zM1076.2 146.1c0-4.7 1.6-8.6 4.8-11.8 3.2-3.2 7.4-4.9 12.6-4.9s9.4 1.6 12.7 4.9 4.8 7.2 4.9 11.8c0 3.5-.9 6.4-2.8 8.6h15.3v9.6h-46.5v-9.5h2.4c-2.4-2.2-3.4-5.1-3.4-8.7zm23.7-4.6c-1.6-1.5-3.7-2.2-6.3-2.2-2.5 0-4.6.7-6.3 2.2-1.6 1.5-2.5 3.3-2.5 5.6 0 2.2.8 4.1 2.5 5.6 1.7 1.4 3.8 2.2 6.3 2.2s4.6-.7 6.3-2.2c1.6-1.5 2.4-3.4 2.4-5.6.1-2.3-.7-4.1-2.4-5.6zM1111.2 113.1c0 3.5-1 6.2-3 8.3s-4.6 3.2-7.8 3.2c-3.3 0-5.9-1.3-7.7-3.8-1.9-2.5-2.8-5.7-2.7-9.4 0-2.2.3-4.4.9-6.7h-.5c-1.6 0-2.9.5-3.9 1.5s-1.5 2.4-1.5 4.1c0 3.1 1.3 5.5 3.8 7.1l-5.8 6.1c-4.5-3.7-6.7-8.3-6.7-13.9 0-4.1 1.2-7.6 3.6-10.4s5.6-4.2 9.8-4.2h20.8v9.5h-2.2c1.9 2.3 2.9 5.1 2.9 8.6zm-11.8 1.8c.9 0 1.6-.4 2.2-1.2.5-.8.8-1.8.8-3 0-2.2-.6-4.2-1.9-6h-3.4c-.9 4-.9 6.9.2 8.7.5 1 1.3 1.5 2.1 1.5zM1110.3 76.3v9.7h-47.7v-9.7h47.7zM1110.3 57.1v9.7h-47.7v-9.7h24.9l-10.6-9.2v-12.2l13.8 12.3 19.6-12.9v11.8l-12.7 8 2.5 2.2h10.2zM1111.2 20.4c0 3.5-1 6.2-3 8.3s-4.6 3.2-7.8 3.2c-3.3 0-5.9-1.3-7.7-3.8-1.9-2.5-2.8-5.7-2.7-9.4 0-2.2.3-4.4.9-6.7h-.5c-1.6 0-2.9.5-3.9 1.5s-1.5 2.4-1.5 4.1c0 3.1 1.3 5.5 3.8 7.1l-5.8 6.1c-4.5-3.7-6.7-8.3-6.7-13.9 0-4.1 1.2-7.6 3.6-10.4s5.6-4.2 9.8-4.2h20.8v9.5h-2.2c1.9 2.3 2.9 5.1 2.9 8.6zm-11.8 1.8c.9 0 1.6-.4 2.2-1.2.5-.8.8-1.8.8-3 0-2.2-.6-4.2-1.9-6h-3.4c-.9 4-.9 6.9.2 8.7.5 1 1.3 1.5 2.1 1.5zM1166.7 404.6v-9.6l47.7-18.7v10.5l-9.4 3.8v18.4l9.4 3.8v10.5l-47.7-18.7zm29.2-10.7l-15.6 5.9 15.6 5.9v-11.8zM1197.7 361.5h16.7v9.7h-33.4v-9.5h2.3c-2.1-2.1-3.1-4.8-3.1-7.9 0-4.1 1.3-7.4 3.9-9.9 2.6-2.4 6.2-3.7 10.8-3.7h19.4v9.7h-18.6c-2 0-3.6.5-4.8 1.4-1.2.9-1.8 2.3-1.8 4.1.1 4.1 2.8 6.1 8.6 6.1zM1197.7 321.8h16.7v9.7h-33.4v-9.5h2.3c-2.1-2.1-3.1-4.8-3.1-7.9 0-4.1 1.3-7.4 3.9-9.9 2.6-2.4 6.2-3.7 10.8-3.7h19.4v9.7h-18.6c-2 0-3.6.5-4.8 1.4-1.2.9-1.8 2.3-1.8 4.1.1 4 2.8 6.1 8.6 6.1zM1215.1 282.9c0 3.5-1 6.2-3 8.3-1.9 2.1-4.6 3.2-7.8 3.2-3.3 0-5.9-1.3-7.7-3.8-1.9-2.5-2.8-5.7-2.7-9.4 0-2.2.3-4.4.9-6.7h-.5c-1.6 0-2.9.5-3.9 1.5s-1.5 2.4-1.5 4.1c0 3.1 1.3 5.5 3.8 7.1l-5.8 6.1c-4.5-3.7-6.7-8.3-6.7-13.9 0-4.1 1.2-7.6 3.6-10.4s5.6-4.2 9.8-4.2h20.8v9.5h-2.2c1.9 2.4 2.9 5.2 2.9 8.6zm-11.7 1.9c.9 0 1.6-.4 2.2-1.2.5-.8.8-1.8.8-3 0-2.2-.6-4.2-1.9-6h-3.4c-.9 4-.9 6.9.2 8.7.5 1 1.3 1.5 2.1 1.5zM1214.3 246.1v9.7h-47.7v-9.7h47.7zM1171.4 237c-1.6 0-2.9-.5-4-1.6s-1.6-2.4-1.6-4 .5-2.9 1.6-4 2.4-1.7 4-1.7 2.9.6 4 1.7 1.6 2.5 1.6 4-.5 2.8-1.6 3.9-2.3 1.7-4 1.7zm42.9-10.4v9.7h-33.4v-9.7h33.4zM1191.1 218.5c-3.3 0-5.9-1.3-7.9-3.8s-3-5.6-3-9.2c0-5 1.8-9.5 5.5-13.4l6.2 5.9c-2 2.7-3.1 5.3-3.1 7.9 0 1 .2 1.7.5 2.3.4.6.8.9 1.3.8.8 0 1.3-.8 1.7-2.4l1.1-5c1.6-7.3 5.1-11 10.4-11 3.3 0 6 1.3 8.1 3.8s3.1 5.9 3.1 10.1c0 3-.6 5.8-2 8.5-1.3 2.7-3 4.7-5 6.1l-5.9-5.9c2.8-3 4.2-6.2 4.2-9.5 0-1-.2-1.9-.6-2.6-.4-.8-.9-1.1-1.5-1.1-.8 0-1.5 1-2 3l-1 4.4c-1.6 7.5-5 11.1-10.1 11.1zM1215.1 174.5c0 3.5-1 6.2-3 8.3-1.9 2.1-4.6 3.2-7.8 3.2-3.3 0-5.9-1.3-7.7-3.8-1.9-2.5-2.8-5.7-2.7-9.4 0-2.2.3-4.4.9-6.7h-.5c-1.6 0-2.9.5-3.9 1.5s-1.5 2.4-1.5 4.1c0 3.1 1.3 5.5 3.8 7.1l-5.8 6.1c-4.5-3.7-6.7-8.3-6.7-13.9 0-4.1 1.2-7.6 3.6-10.4 2.4-2.8 5.6-4.2 9.8-4.2h20.8v9.5h-2.2c1.9 2.3 2.9 5.1 2.9 8.6zm-11.7 1.8c.9 0 1.6-.4 2.2-1.2.5-.8.8-1.8.8-3 0-2.2-.6-4.2-1.9-6h-3.4c-.9 4-.9 6.9.2 8.7.5 1 1.3 1.5 2.1 1.5zM1198.9 118.5h15.4v10.1h-47.7v-19.8c0-5.3 1.4-9.7 4.2-13.1 2.8-3.4 6.6-5.1 11.4-5.1 3.3 0 6.3.8 8.9 2.5s4.6 4 6 6.9l17.3-10.6v11.5l-15.4 9.4v8.2h-.1zm-23-7.9v7.9h13.8v-7.9c0-6.6-2.3-10-7-10-4.5.1-6.8 3.4-6.8 10zM1171.4 83c-1.6 0-2.9-.5-4-1.6s-1.6-2.4-1.6-4 .5-2.9 1.6-4 2.4-1.7 4-1.7 2.9.6 4 1.7 1.6 2.5 1.6 4-.5 2.8-1.6 3.9c-1.1 1.2-2.3 1.7-4 1.7zm42.9-10.4v9.7h-33.4v-9.7h33.4zM1180.9 44v-10.3l33.4 11.8v9.9l-33.4 11.9v-10.3l20.6-6.5-20.6-6.5zM1215.1 20c0 3.5-1 6.2-3 8.3s-4.6 3.2-7.8 3.2c-3.3 0-5.9-1.3-7.7-3.8-1.9-2.5-2.8-5.7-2.7-9.4 0-2.2.3-4.4.9-6.7h-.5c-1.6 0-2.9.5-3.9 1.5s-1.5 2.4-1.5 4.1c0 3.1 1.3 5.5 3.8 7.1l-5.8 6.1c-4.5-3.7-6.7-8.3-6.7-13.9 0-4.1 1.2-7.6 3.6-10.4s5.6-4.2 9.8-4.2h20.8v9.5h-2.2c1.9 2.3 2.9 5.1 2.9 8.6zm-11.7 1.8c.9 0 1.6-.4 2.2-1.2.5-.8.8-1.8.8-3 0-2.2-.6-4.2-1.9-6h-3.4c-.9 4-.9 6.9.2 8.7.5 1 1.3 1.5 2.1 1.5zM1294.3 646.2c-7.2 0-13-2.3-17.6-6.9-4.6-4.6-6.9-10.4-6.9-17.3 0-7 2.3-12.8 7-17.4 4.7-4.7 10.6-7 17.7-7 5.4 0 10.2 1.4 14.4 4.3l5-5.1 6.4 6.4-5.1 5.1c2.6 4.1 3.9 8.7 3.9 13.8 0 6.8-2.3 12.5-6.9 17.2-4.8 4.6-10.6 6.9-17.9 6.9zm0-38.6c-4.2 0-7.8 1.3-10.7 4-3 2.7-4.5 6.1-4.5 10.4s1.5 7.7 4.4 10.3 6.5 3.9 10.8 3.9 7.9-1.3 10.9-3.9c3-2.6 4.4-6.1 4.4-10.5 0-2.5-.5-4.7-1.4-6.6l-5.9 5.8-6.6-6.5 5.7-5.5c-2.2-.9-4.5-1.4-7.1-1.4zM1319.1 579.2c0 3.5-1 6.2-3 8.3-1.9 2.1-4.6 3.2-7.8 3.2-3.3 0-5.9-1.3-7.7-3.8-1.9-2.5-2.8-5.7-2.7-9.4 0-2.2.3-4.4.9-6.7h-.5c-1.6 0-2.9.5-3.9 1.5s-1.5 2.4-1.5 4.1c0 3.1 1.3 5.5 3.8 7.1l-5.8 6.1c-4.5-3.7-6.7-8.3-6.7-13.9 0-4.1 1.2-7.6 3.6-10.4 2.4-2.8 5.6-4.2 9.8-4.2h20.8v9.5h-2.2c1.9 2.3 2.9 5.1 2.9 8.6zm-11.7 1.8c.9 0 1.6-.4 2.2-1.2.5-.8.8-1.8.8-3 0-2.2-.6-4.2-1.9-6h-3.4c-.9 4-.9 6.9.2 8.7.5 1 1.3 1.5 2.1 1.5zM1294.9 553.9c-3.3 0-5.9-1.3-7.9-3.8s-3-5.6-3-9.2c0-5 1.8-9.5 5.5-13.4l6.2 5.9c-2 2.7-3.1 5.3-3.1 7.9 0 1 .2 1.7.5 2.3.4.6.8.9 1.3.8.8 0 1.3-.8 1.7-2.4l1.1-5c1.6-7.3 5.1-11 10.4-11 3.3 0 6 1.3 8.1 3.8s3.1 5.9 3.1 10.1c0 3-.6 5.8-2 8.5-1.3 2.7-3 4.7-5 6.1l-5.9-5.9c2.8-3 4.2-6.2 4.2-9.5 0-1-.2-1.9-.6-2.6-.4-.8-.9-1.1-1.5-1.1-.8 0-1.5 1-2 3l-1 4.4c-1.4 7.5-4.8 11.1-10.1 11.1zM1275.4 519.8c-1.6 0-2.9-.5-4-1.6s-1.6-2.4-1.6-4 .5-2.9 1.6-4 2.4-1.7 4-1.7 2.9.6 4 1.7 1.6 2.5 1.6 4-.5 2.8-1.6 3.9c-1.1 1.2-2.3 1.7-4 1.7zm42.8-10.4v9.7h-33.4v-9.7h33.4zM1301.2 489.9h17.1v9.7h-33.4v-9.5h2.3c-2.1-2.1-3.1-5-3.1-8.5s1.3-6.5 4-8.8c-2.7-2.7-4-6.2-4-10.4s1.3-7.5 3.9-10c2.6-2.4 6.2-3.6 10.9-3.6h19.4v9.7h-19c-1.9 0-3.4.4-4.6 1.3-1.1.9-1.7 2.2-1.7 3.9 0 1.7.7 3.1 2 4.1s3.1 1.5 5.4 1.5h17.8v9.7h-19c-1.9 0-3.4.4-4.6 1.3s-1.7 2.1-1.7 3.8c.2 3.9 2.9 5.8 8.3 5.8zM1302.8 411.4h15.4v10.1h-47.7v-19.7c0-5.3 1.4-9.7 4.2-13.1 2.8-3.4 6.6-5.1 11.4-5.1 3.3 0 6.3.8 8.9 2.5s4.6 4 6 6.9l17.3-10.6v11.4l-15.4 9.4v8.2h-.1zm-23-7.9v7.9h13.8v-7.9c0-6.6-2.3-10-7-10-4.4 0-6.8 3.4-6.8 10zM1275.4 375.9c-1.6 0-2.9-.5-4-1.6s-1.6-2.4-1.6-4 .5-2.9 1.6-4 2.4-1.7 4-1.7 2.9.6 4 1.7 1.6 2.5 1.6 4-.5 2.8-1.6 3.9c-1.1 1.2-2.3 1.7-4 1.7zm42.8-10.4v9.7h-33.4v-9.7h33.4zM1293.7 356.8h-8.7v-27h7.8l16.8 14.7v-15.4h8.7v28.1h-7.7l-16.9-14.5v14.1zM1319.1 311.6c0 3.5-1 6.2-3 8.3-1.9 2.1-4.6 3.2-7.8 3.2-3.3 0-5.9-1.3-7.7-3.8-1.9-2.5-2.8-5.7-2.7-9.4 0-2.2.3-4.4.9-6.7h-.5c-1.6 0-2.9.5-3.9 1.5s-1.5 2.4-1.5 4.1c0 3.1 1.3 5.5 3.8 7.1l-5.8 6.1c-4.5-3.7-6.7-8.3-6.7-13.9 0-4.1 1.2-7.6 3.6-10.4s5.6-4.2 9.8-4.2h20.8v9.5h-2.2c1.9 2.3 2.9 5.2 2.9 8.6zm-11.7 1.9c.9 0 1.6-.4 2.2-1.2.5-.8.8-1.8.8-3 0-2.2-.6-4.2-1.9-6h-3.4c-.9 4-.9 6.9.2 8.7.5 1 1.3 1.5 2.1 1.5zM1293.7 263c-2.4 2.6-5.7 4-9.9 4-4.1 0-7.5-1.7-10.1-5.2s-3.9-7.6-3.9-12.4c0-7.4 2.5-13.6 7.6-18.4l7.2 6.8c-3.7 3.6-5.6 7.7-5.6 12.1 0 2.1.4 3.8 1.3 5.1.9 1.3 2 1.9 3.5 1.9 2.6 0 4.3-2.3 5.1-6.8l.8-4.7c1.7-10.7 6.6-16 14.8-16 4.4 0 7.9 1.8 10.6 5.3s4 8.1 4 13.7c0 4.1-.8 7.8-2.5 11.3-1.7 3.5-3.9 6.3-6.7 8.5l-7-6.9c4.6-3.5 6.9-8 6.9-13.5 0-2.5-.5-4.5-1.4-6.1-.9-1.5-2.2-2.3-3.7-2.3-2.5 0-4.2 2.2-5 6.7l-1 5.8c-.9 4.8-2.5 8.5-5 11.1zM1301.6 213.2h16.7v9.7h-47.7v-9.7h16.3c-1.8-1.9-2.7-4.5-2.7-7.7 0-4.1 1.3-7.4 3.9-9.9 2.6-2.4 6.2-3.7 10.8-3.7h19.4v9.7h-18.6c-2 0-3.6.5-4.8 1.4-1.2.9-1.8 2.3-1.8 4.1 0 4.1 2.8 6.1 8.5 6.1zM1319.1 174.5c0 3.5-1 6.2-3 8.3-1.9 2.1-4.6 3.2-7.8 3.2-3.3 0-5.9-1.3-7.7-3.8-1.9-2.5-2.8-5.7-2.7-9.4 0-2.2.3-4.4.9-6.7h-.5c-1.6 0-2.9.5-3.9 1.5s-1.5 2.4-1.5 4.1c0 3.1 1.3 5.5 3.8 7.1l-5.8 6.1c-4.5-3.7-6.7-8.3-6.7-13.9 0-4.1 1.2-7.6 3.6-10.4 2.4-2.8 5.6-4.2 9.8-4.2h20.8v9.5h-2.2c1.9 2.3 2.9 5.1 2.9 8.6zm-11.7 1.8c.9 0 1.6-.4 2.2-1.2.5-.8.8-1.8.8-3 0-2.2-.6-4.2-1.9-6h-3.4c-.9 4-.9 6.9.2 8.7.5 1 1.3 1.5 2.1 1.5zM1301.6 137.7h16.7v9.7h-47.7v-9.7h16.3c-1.8-1.9-2.7-4.5-2.7-7.7 0-4.1 1.3-7.4 3.9-9.9s6.2-3.7 10.8-3.7h19.4v9.7h-18.6c-2 0-3.6.5-4.8 1.4-1.2.9-1.8 2.3-1.8 4.1 0 4 2.8 6.1 8.5 6.1zM1310.1 93c0-3.4-1.3-6.1-3.8-8.2l5.9-6.4c4.5 3.6 6.8 8.4 6.8 14.3 0 5-1.6 9.2-4.8 12.6-3.2 3.3-7.3 5-12.4 5s-9.3-1.5-12.7-4.6c-3.4-3.1-5.1-7.1-5.1-12s1.7-8.8 5.1-11.7c3.4-2.8 7.4-4.2 12-4.2l2.9.1v22.6c1.8-.3 3.2-1.1 4.3-2.4 1.3-1.3 1.8-3 1.8-5.1zm-15.9-3.2c-.9 1-1.4 2.4-1.4 4s.4 3 1.3 4.1c.9 1.1 2 1.8 3.4 2.1v-12c-1.3.2-2.3.7-3.3 1.8zM1310.1 55.3c0-3.4-1.3-6.1-3.8-8.2l5.9-6.4c4.5 3.6 6.8 8.4 6.8 14.3 0 5-1.6 9.2-4.8 12.6-3.2 3.3-7.3 5-12.4 5s-9.3-1.5-12.7-4.6c-3.4-3.1-5.1-7.1-5.1-12s1.7-8.8 5.1-11.7c3.4-2.8 7.4-4.2 12-4.2l2.9.1v22.6c1.8-.3 3.2-1.1 4.3-2.4 1.3-1.4 1.8-3.1 1.8-5.1zm-15.9-3.3c-.9 1-1.4 2.4-1.4 4s.4 3 1.3 4.1 2 1.8 3.4 2.1v-12c-1.3.2-2.3.8-3.3 1.8zM1301.6 23.7h16.7v9.7h-33.4v-9.6h2.3c-2.1-2.1-3.1-4.8-3.1-7.9 0-4.1 1.3-7.4 3.9-9.9s6.2-3.7 10.8-3.7h19.4v9.7h-18.6c-2 0-3.6.5-4.8 1.4-1.2.9-1.8 2.3-1.8 4.1.1 4.1 2.9 6.2 8.6 6.2zM1407.2 413.5v9.2h15.1v10.1h-47.7v-19.3c0-5.7 1.5-10.2 4.4-13.5 2.9-3.4 6.8-5.1 11.7-5.1s9 1.7 12 5.2c3 3.4 4.5 7.9 4.5 13.4zm-23.4 1.8v7.5h14v-7.5c0-6.9-2.4-10.4-7.1-10.4-2.4 0-4.2.8-5.2 2.5-1.1 1.7-1.7 4.3-1.7 7.9zM1422.9 380c0 3.5-1 6.2-3 8.3-1.9 2.1-4.6 3.2-7.8 3.2-3.3 0-5.9-1.3-7.7-3.8-1.9-2.5-2.8-5.7-2.7-9.4 0-2.2.3-4.4.9-6.7h-.5c-1.6 0-2.9.5-3.9 1.5s-1.5 2.4-1.5 4.1c0 3.1 1.3 5.5 3.8 7.1l-5.8 6.1c-4.5-3.7-6.7-8.3-6.7-13.9 0-4.2 1.2-7.6 3.6-10.4s5.6-4.2 9.8-4.2h20.8v9.5h-2.2c2.1 2.3 2.9 5.2 2.9 8.6zm-11.6 1.9c.9 0 1.6-.4 2.2-1.2.5-.8.8-1.8.8-3 0-2.2-.6-4.2-1.9-6h-3.4c-.9 4-.9 6.9.2 8.7.6 1 1.2 1.5 2.1 1.5zM1405.6 320.3c4.9 0 9.1 1.7 12.4 5s5 7.5 5 12.6-1.7 9.3-5 12.6-7.5 5-12.4 5-9.1-1.7-12.5-5c-3.3-3.5-5-7.7-5-12.6 0-5 1.7-9.1 5-12.5 3.3-3.4 7.6-5.1 12.5-5.1zm6.1 12.1c-1.6-1.5-3.6-2.2-6.1-2.2s-4.5.7-6.1 2.2-2.4 3.3-2.4 5.6.8 4.1 2.4 5.6 3.6 2.2 6.1 2.2 4.5-.7 6.1-2.2 2.4-3.3 2.4-5.6-.9-4.2-2.4-5.6zM1422.2 303.9v9.7h-47.7v-9.7h47.7zM1405.6 261.8c4.9 0 9.1 1.7 12.4 5s5 7.5 5 12.6-1.7 9.3-5 12.6-7.5 5-12.4 5-9.1-1.7-12.5-5c-3.3-3.5-5-7.7-5-12.6s1.7-9.1 5-12.5c3.3-3.4 7.6-5.1 12.5-5.1zm6.1 12c-1.6-1.5-3.6-2.2-6.1-2.2s-4.5.7-6.1 2.2-2.4 3.3-2.4 5.6.8 4.1 2.4 5.6 3.6 2.2 6.1 2.2 4.5-.7 6.1-2.2 2.4-3.3 2.4-5.6-.9-4.1-2.4-5.6zM1374.6 229.5l34.6-11.4-34.6-11.1v-10.4l47.7 16.3v11.1l-47.7 15.7v-10.2zM1414.1 180.6c0-3.4-1.3-6.1-3.8-8.2l5.9-6.4c4.5 3.6 6.8 8.4 6.8 14.3 0 5-1.6 9.2-4.8 12.6-3.2 3.3-7.3 5-12.4 5s-9.3-1.5-12.7-4.6c-3.4-3.1-5.1-7.1-5.1-12s1.7-8.8 5.1-11.7c3.4-2.8 7.4-4.2 12-4.2l2.9.1v22.6c1.8-.3 3.2-1.1 4.3-2.4 1.1-1.3 1.8-3 1.8-5.1zm-15.9-3.2c-.9 1-1.4 2.4-1.4 4s.4 3 1.3 4.1 2 1.8 3.4 2.1v-12c-1.3.2-2.4.8-3.3 1.8zM1405.6 149h16.7v9.7h-33.4v-9.5h2.3c-2.1-2.1-3.1-4.8-3.1-7.9 0-4.1 1.3-7.4 3.9-9.9 2.6-2.4 6.2-3.7 10.8-3.7h19.4v9.7h-18.6c-2 0-3.6.5-4.8 1.4-1.2.9-1.8 2.3-1.8 4.1.1 4.1 2.8 6.1 8.6 6.1zM1422.3 107.2c0 7.8-4 11.7-11.9 11.7h-12.6v4.3h-9v-4.3h-9.3v-9.7h9.3v-7.3h9v7.3h11.5c1.6 0 2.6-.3 3.2-1s.9-1.8.9-3.4v-2.9h8.8c.1 2.3.1 4.1.1 5.3zM1405.9 74.7h-17.1v-9.7h33.4v9.5h-2.3c2 2 3.1 4.9 3.1 8.6s-1.3 6.7-3.8 8.8c-2.6 2.2-6.2 3.3-10.9 3.3h-19.4v-9.7h19c1.9 0 3.4-.4 4.5-1.3s1.7-2.2 1.7-3.8c0-3.8-2.8-5.7-8.2-5.7zM1397.8 35v1.5c0 2.9.9 5.1 2.7 6.8 1.8 1.6 4.4 2.5 7.8 2.5h14v9.7h-33.4v-9.5h3c-2.3-2-3.4-4.8-3.5-8.3 0-1.3 0-2.2.1-2.6h9.3v-.1zM1422.9 20.3c0 3.5-1 6.2-3 8.3s-4.6 3.2-7.8 3.2c-3.3 0-5.9-1.3-7.7-3.8-1.9-2.5-2.8-5.7-2.7-9.4 0-2.2.3-4.4.9-6.7h-.5c-1.6 0-2.9.5-3.9 1.5s-1.5 2.4-1.5 4.1c0 3.1 1.3 5.5 3.8 7.1l-5.8 6.2c-4.5-3.7-6.7-8.3-6.7-13.9 0-4.1 1.2-7.6 3.6-10.4s5.6-4.2 9.8-4.2h20.8v9.5h-2.2c2.1 2.2 2.9 5 2.9 8.5zm-11.6 1.8c.9 0 1.6-.4 2.2-1.2.5-.8.8-1.8.8-3 0-2.2-.6-4.2-1.9-6h-3.4c-.9 4-.9 6.9.2 8.7.6 1 1.2 1.5 2.1 1.5zM1526.2 418.7v10.1h-47.7v-10.1l26.7-13.6-26.7-13.6v-10.1h47.7v10.1h-27.1l17.4 9.1v9l-17.4 9.1h27.1zM1526.9 362.8c0 3.5-1 6.2-3 8.3-1.9 2.1-4.6 3.2-7.8 3.2-3.3 0-5.9-1.3-7.7-3.8-1.9-2.5-2.8-5.7-2.7-9.4 0-2.2.3-4.4.9-6.7h-.5c-1.6 0-2.9.5-3.9 1.5s-1.5 2.4-1.5 4.1c0 3.1 1.3 5.5 3.8 7.1l-5.8 6.1c-4.5-3.7-6.7-8.3-6.7-13.9 0-4.2 1.2-7.6 3.6-10.4s5.6-4.2 9.8-4.2h20.8v9.5h-2.2c1.9 2.3 2.9 5.1 2.9 8.6zm-11.6 1.8c.9 0 1.6-.4 2.2-1.2s.8-1.8.8-3c0-2.2-.6-4.2-1.9-6h-3.4c-.9 4-.9 6.9.2 8.7.5 1 1.2 1.5 2.1 1.5zM1509.6 325.9h16.7v9.7h-33.4v-9.5h2.3c-2.1-2.1-3.1-4.8-3.1-7.9 0-4.1 1.3-7.4 3.9-9.9 2.6-2.4 6.2-3.7 10.8-3.7h19.4v9.7h-18.6c-2 0-3.6.5-4.8 1.4-1.2.9-1.8 2.3-1.8 4.1.1 4.1 2.8 6.1 8.6 6.1zM1509.8 276.2h-17.1v-9.7h33.4v9.5h-2.3c2.1 2 3.1 4.9 3.1 8.6s-1.3 6.7-3.8 8.9c-2.6 2.2-6.2 3.3-10.9 3.3h-19.4v-9.7h19c1.9 0 3.4-.4 4.5-1.3s1.7-2.2 1.7-3.8c-.1-3.9-2.8-5.8-8.2-5.8zM1517.9 242.4c0-3.4-1.3-6.1-3.8-8.2l5.9-6.4c4.5 3.6 6.8 8.4 6.8 14.3 0 5-1.6 9.2-4.8 12.6-3.2 3.3-7.3 5-12.4 5s-9.3-1.5-12.7-4.6c-3.4-3.1-5.1-7.1-5.1-12s1.7-8.8 5.1-11.7c3.4-2.8 7.4-4.2 12-4.2l2.9.1v22.5c1.8-.3 3.2-1.1 4.3-2.4 1.3-1.3 1.8-3 1.8-5zm-15.7-3.3c-.9 1-1.4 2.4-1.4 4s.4 3 1.3 4.1 2 1.8 3.4 2.1v-12c-1.3.2-2.4.8-3.3 1.8zM1526.2 210.7v9.7h-47.7v-9.7h47.7zM1478.4 176.6l34.6-11.4-34.6-11.1v-10.4l47.7 16.3v11.1l-47.7 15.7v-10.2zM1526.9 132.5c0 3.5-1 6.2-3 8.3-1.9 2.1-4.6 3.2-7.8 3.2-3.3 0-5.9-1.3-7.7-3.8-1.9-2.5-2.8-5.7-2.7-9.4 0-2.2.3-4.4.9-6.7h-.5c-1.6 0-2.9.5-3.9 1.5s-1.5 2.4-1.5 4.1c0 3.1 1.3 5.5 3.8 7.1l-5.8 6.1c-4.5-3.7-6.7-8.3-6.7-13.9 0-4.1 1.2-7.6 3.6-10.4s5.6-4.2 9.8-4.2h20.8v9.5h-2.2c1.9 2.3 2.9 5.1 2.9 8.6zm-11.6 1.8c.9 0 1.6-.4 2.2-1.2.5-.8.8-1.8.8-3 0-2.2-.6-4.2-1.9-6h-3.4c-.9 4-.9 6.9.2 8.7.5 1 1.2 1.5 2.1 1.5zM1502.9 107.2c-3.3 0-5.9-1.3-7.9-3.8s-3-5.6-3-9.2c0-5 1.8-9.5 5.5-13.4l6.2 5.9c-2 2.7-3.1 5.3-3.1 7.9 0 1 .2 1.7.5 2.3.4.6.8.9 1.3.8.8 0 1.3-.8 1.7-2.4l1.1-5c1.6-7.3 5.1-11 10.4-11 3.3 0 6 1.3 8.1 3.8s3.1 5.9 3.1 10.1c0 3-.6 5.8-2 8.5-1.3 2.7-3 4.7-5 6.1l-5.9-5.9c2.8-3 4.2-6.2 4.2-9.5 0-1-.2-1.9-.6-2.6-.4-.8-.9-1.1-1.5-1.1-.8 0-1.5 1-2 3l-1 4.4c-1.6 7.5-4.9 11.1-10.1 11.1zM1509.4 39.8c4.9 0 9.1 1.7 12.4 5s5 7.5 5 12.6-1.7 9.3-5 12.6c-3.3 3.4-7.5 5-12.4 5s-9.1-1.7-12.5-5c-3.3-3.5-5-7.7-5-12.6 0-5 1.7-9.1 5-12.5s7.7-5.1 12.5-5.1zm6.2 12c-1.6-1.5-3.6-2.2-6.1-2.2s-4.5.7-6.1 2.2-2.4 3.3-2.4 5.6.8 4.1 2.4 5.6c1.6 1.5 3.6 2.2 6.1 2.2s4.5-.7 6.1-2.2 2.4-3.3 2.4-5.6c-.1-2.3-.8-4.1-2.4-5.6zM1509.6 23.3h16.7v9.7h-33.4v-9.5h2.3c-2.1-2.1-3.1-4.8-3.1-7.9 0-4.1 1.3-7.4 3.9-9.9s6.2-3.7 10.8-3.7h19.4v9.7h-18.6c-2 0-3.6.5-4.8 1.4-1.2.9-1.8 2.3-1.8 4.1.1 4.1 2.8 6.1 8.6 6.1z"/></svg>
